<svg width="24" height="25" viewBox="0 0 24 25" fill="none" xmlns="http://www.w3.org/2000/svg">
<path d="M0.00390625 22.9946C0.0386603 23.0886 0.0715357 23.1825 0.108638 23.2764C0.219625 23.5538 0.411419 23.7915 0.659138 23.9586C0.906857 24.1256 1.19907 24.2144 1.49786 24.2134C7.16934 24.2134 12.8408 24.2134 18.5123 24.2134C19.3548 24.2134 20.0067 23.5474 20.0105 22.68C20.0166 21.3053 20.0105 19.9302 20.0105 18.5555C20.0105 17.0091 20.0105 15.4624 20.0105 13.9154C20.0136 13.8371 20.0121 13.7587 20.0058 13.6805C19.9969 13.5539 19.9407 13.4353 19.8484 13.3483C19.756 13.2613 19.6342 13.2122 19.5073 13.2109C19.3804 13.2096 19.2577 13.2561 19.1635 13.3413C19.0694 13.4264 19.0108 13.5438 18.9993 13.6702C18.9916 13.7558 18.9896 13.8418 18.9932 13.9276C18.9932 16.8025 18.9932 19.6772 18.9932 22.5517C18.9932 23.0552 18.8406 23.2093 18.3385 23.2093H1.6768C1.16441 23.2093 1.00802 23.0519 1.00802 22.5348C1.00802 16.4883 1.00802 10.4418 1.00802 4.39559C1.00802 3.87381 1.1583 3.72305 1.67304 3.72305H12.5468C13.0132 3.72305 13.2691 3.53519 13.2597 3.20268C13.2504 2.87017 13.0066 2.70344 12.5482 2.70344C9.00144 2.70344 5.45653 2.718 1.90833 2.69358C0.970444 2.68889 0.303073 2.98523 0.00390625 3.91749V22.9946Z" fill="url(#paint0_linear_275_2106)"/>
<path d="M16.6915 0.214318C16.814 0.394663 16.9756 0.55998 17.0526 0.758172C17.4128 1.68714 17.7543 2.62315 18.0901 3.56104C18.1521 3.73481 18.2497 3.81981 18.4188 3.88087C19.3929 4.23263 20.3622 4.59614 21.333 4.95636C21.6251 5.06438 21.7491 5.21232 21.7533 5.45278C21.758 5.70545 21.634 5.86044 21.3306 5.97221C20.3599 6.33243 19.3901 6.69594 18.416 7.04771C18.2469 7.10876 18.1511 7.19518 18.0872 7.36801C17.7374 8.34206 17.3739 9.31142 17.0141 10.2827C16.9004 10.5893 16.7516 10.7128 16.5012 10.7128C16.2509 10.7128 16.102 10.5889 15.9884 10.2817C15.631 9.31095 15.2679 8.33924 14.9171 7.36707C14.8959 7.2939 14.8568 7.22712 14.8035 7.17271C14.7501 7.1183 14.6841 7.07793 14.6114 7.05522C13.6383 6.70205 12.6689 6.33948 11.6996 5.9802C11.3783 5.86091 11.2496 5.70968 11.2571 5.45231C11.2656 5.16442 11.452 5.0362 11.6986 4.9465C12.6713 4.59192 13.6401 4.227 14.6104 3.87335C14.6802 3.85322 14.7439 3.81626 14.7959 3.76573C14.848 3.71521 14.8869 3.65265 14.9091 3.58358C15.2468 2.64428 15.6 1.71438 15.9381 0.776958C16.0189 0.553874 16.1152 0.354274 16.3139 0.213379L16.6915 0.214318ZM17.2517 6.73117C17.2883 6.60863 17.3546 6.49703 17.4447 6.40632C17.5349 6.31561 17.6461 6.2486 17.7684 6.21126C18.4216 5.98302 19.0679 5.73457 19.7667 5.47579C19.6686 5.42883 19.6136 5.39455 19.5544 5.37294C18.9486 5.14845 18.3437 4.92114 17.735 4.70557C17.6239 4.67005 17.523 4.60827 17.4408 4.52545C17.3586 4.44263 17.2976 4.34122 17.263 4.22982C17.0498 3.6282 16.823 3.03127 16.6008 2.43247C16.5773 2.36907 16.5496 2.30754 16.5069 2.20704C16.4637 2.30097 16.4322 2.35686 16.4097 2.41744C16.1875 3.01577 15.9607 3.6127 15.7489 4.21479C15.6615 4.46276 15.514 4.61869 15.2633 4.70651C14.6682 4.91456 14.0793 5.14093 13.488 5.36026C13.4175 5.38609 13.3471 5.41662 13.2264 5.4664C13.4955 5.56925 13.7153 5.65426 13.9365 5.73739C14.3817 5.90271 14.8255 6.07366 15.275 6.22676C15.5183 6.30989 15.6601 6.46159 15.7446 6.70299C15.9555 7.29709 16.18 7.8865 16.3998 8.47779C16.4256 8.54777 16.4552 8.61868 16.5074 8.74549C16.7741 8.03068 17.023 7.38445 17.2517 6.73117Z" fill="url(#paint1_linear_275_2106)"/>
<path d="M9.99455 16.0917V15.7903C9.99455 13.1579 10.0073 10.525 9.98525 7.89268C9.98061 7.3094 10.3917 7.09365 10.9097 7.27687C12.0995 7.6959 13.3021 8.08241 14.4989 8.483C14.8961 8.61581 14.9994 8.75404 15 9.14868C15 10.1935 15 11.2384 15 12.2835C15 12.7942 14.6574 13.017 14.1383 12.8446C13.2173 12.5385 12.2967 12.2313 11.3766 11.9231C11.2964 11.8965 11.2146 11.8743 11.1048 11.8412V12.1453C11.1048 14.2025 11.1106 16.2602 11.1048 18.3174C11.099 19.7144 10.167 20.8078 8.72925 21.1363C6.91056 21.5493 5.07097 20.25 5.00245 18.505C4.93276 16.8148 6.36066 15.439 8.1265 15.4948C8.71061 15.5104 9.27785 15.6812 9.76169 15.987C9.81976 16.0228 9.87783 16.058 9.9359 16.0927C9.94054 16.0955 9.95041 16.0917 9.99455 16.0917ZM8.04985 16.5475C7.66737 16.549 7.29396 16.6564 6.97681 16.856C6.65966 17.0555 6.41301 17.3384 6.26805 17.6688C6.12309 17.9993 6.08632 18.3624 6.16239 18.7123C6.23846 19.0622 6.42395 19.3833 6.69541 19.6348C6.96688 19.8863 7.31214 20.0571 7.68754 20.1254C8.06294 20.1938 8.45163 20.1568 8.80448 20.019C9.15733 19.8812 9.4585 19.6488 9.66991 19.3513C9.88132 19.0537 9.99348 18.7043 9.99222 18.3473C9.98824 17.8687 9.78186 17.4111 9.41804 17.074C9.05422 16.7369 8.56245 16.5477 8.04985 16.5475ZM11.1042 8.46186C11.1042 9.20451 11.0996 9.90055 11.1129 10.5966C11.1129 10.6589 11.2192 10.7494 11.2964 10.7765C12.0827 11.0476 12.8736 11.3089 13.6633 11.5712C13.7319 11.5897 13.8014 11.6047 13.8717 11.6162V9.84525C13.8717 9.38394 13.8717 9.38286 13.413 9.22945C12.6558 8.97738 11.9009 8.72694 11.1042 8.46186Z" fill="url(#paint2_linear_275_2106)"/>
<path d="M18.3728 9.2203C18.8039 9.06062 19.2327 8.89484 19.668 8.74784C19.8559 8.68537 19.962 8.58863 20.0254 8.39654C20.1663 7.96024 20.3354 7.53145 20.4951 7.10125C20.5947 6.83731 20.759 6.71191 20.9948 6.71614C21.2564 6.72083 21.4043 6.87065 21.4898 7.10642C21.6561 7.56808 21.8228 8.02975 22.0041 8.4853C22.0465 8.57992 22.1222 8.65563 22.2168 8.69806C22.6724 8.88028 23.1341 9.047 23.5957 9.21467C23.8305 9.29921 23.9846 9.44527 23.9959 9.70498C24.0057 9.93981 23.8681 10.1094 23.5906 10.2136C23.1533 10.3785 22.7179 10.5489 22.2755 10.6988C22.2054 10.7171 22.1412 10.7533 22.0893 10.8038C22.0374 10.8544 21.9994 10.9175 21.9792 10.9871C21.827 11.4286 21.6612 11.8658 21.4973 12.3021C21.3954 12.5745 21.2155 12.7201 20.9929 12.7197C20.7703 12.7192 20.5904 12.5788 20.4885 12.3031C20.3279 11.8724 20.1654 11.4427 20.0142 11.0087C19.9592 10.8505 19.8789 10.7542 19.7098 10.6974C19.2524 10.5438 18.8034 10.3653 18.3507 10.1967C18.1215 10.1112 17.9961 9.95155 17.9961 9.69794C18.006 9.45043 18.1487 9.30296 18.3728 9.2203ZM20.9967 8.69993C20.876 9.27525 20.5637 9.60824 19.9766 9.70451C20.528 9.83742 20.8962 10.1216 20.9831 10.7241C21.1202 10.1709 21.4133 9.80737 22.005 9.71578C21.4245 9.6026 21.1038 9.27572 20.9967 8.69993Z" fill="url(#paint3_linear_275_2106)"/>
<path d="M21.5138 2.97257C21.6852 2.97257 21.8322 2.9782 21.9783 2.97257C22.2939 2.95848 22.5057 2.74948 22.5038 2.46112C22.5019 2.17275 22.2882 1.9694 21.9708 1.95765C21.8299 1.95202 21.689 1.95765 21.5143 1.95765C21.5143 1.80079 21.518 1.65614 21.5143 1.51149C21.5039 1.17992 21.2954 0.962938 20.9976 0.967635C20.7121 0.971861 20.5106 1.18743 20.4993 1.50632C20.4942 1.64722 20.4993 1.78529 20.4993 1.95765C20.3383 1.95765 20.1927 1.95343 20.0475 1.95765C19.7287 1.96846 19.5131 2.17087 19.5093 2.45689C19.5056 2.75418 19.7235 2.96223 20.0546 2.9735C20.1931 2.9782 20.3321 2.9735 20.4993 2.9735C20.4993 3.13929 20.4946 3.28582 20.4993 3.43141C20.512 3.7489 20.7177 3.96212 21.0052 3.96305C21.2926 3.96399 21.5011 3.75124 21.5143 3.43517C21.5166 3.29474 21.5138 3.15385 21.5138 2.97257Z" fill="url(#paint4_linear_275_2106)"/>
<defs>
<linearGradient id="paint0_linear_275_2106" x1="10.0085" y1="2.69353" x2="10.0085" y2="24.2134" gradientUnits="userSpaceOnUse">
<stop stop-color="#CBFB90"/>
<stop offset="1" stop-color="#5AEAF4"/>
</linearGradient>
<linearGradient id="paint1_linear_275_2106" x1="16.5051" y1="0.213379" x2="16.5051" y2="10.7128" gradientUnits="userSpaceOnUse">
<stop stop-color="#CBFB90"/>
<stop offset="1" stop-color="#5AEAF4"/>
</linearGradient>
<linearGradient id="paint2_linear_275_2106" x1="10" y1="7.21338" x2="10" y2="21.2134" gradientUnits="userSpaceOnUse">
<stop stop-color="#CBFB90"/>
<stop offset="1" stop-color="#5AEAF4"/>
</linearGradient>
<linearGradient id="paint3_linear_275_2106" x1="20.9962" y1="6.71603" x2="20.9962" y2="12.7197" gradientUnits="userSpaceOnUse">
<stop stop-color="#CBFB90"/>
<stop offset="1" stop-color="#5AEAF4"/>
</linearGradient>
<linearGradient id="paint4_linear_275_2106" x1="21.0065" y1="0.96756" x2="21.0065" y2="3.96306" gradientUnits="userSpaceOnUse">
<stop stop-color="#CBFB90"/>
<stop offset="1" stop-color="#5AEAF4"/>
</linearGradient>
</defs>
</svg>
