<svg width="24" height="25" viewBox="0 0 24 25" fill="none" xmlns="http://www.w3.org/2000/svg">
<path d="M1.21681 24.2143C1.19195 24.1969 1.16535 24.1821 1.13745 24.1702C0.401065 23.9471 0 23.4122 0 22.6467C0 17.9598 0 13.2718 0 8.58264C0 7.15309 0 5.72322 0 4.29303C0 3.34766 0.641046 2.7038 1.58735 2.70145C5.26707 2.69957 8.94585 2.69957 12.6237 2.70145C13.0933 2.70145 13.3634 3.01892 13.2164 3.38899C13.1356 3.59234 12.9778 3.69003 12.7693 3.71773C12.6911 3.72349 12.6127 3.72474 12.5345 3.72149H1.68598C1.14872 3.72149 1.01206 3.85909 1.01206 4.40246V22.5199C1.01206 23.0703 1.15294 23.2093 1.70664 23.2093H18.3457C18.836 23.206 18.9914 23.0524 18.9914 22.565C18.9914 19.6974 18.9914 16.83 18.9914 13.9627C18.9914 13.8843 18.9877 13.8059 18.9914 13.7279C19.0135 13.417 19.2375 13.1944 19.5132 13.2052C19.7888 13.216 20.0039 13.44 20.0044 13.7561C20.0063 16.7561 20.0053 19.7564 20.0016 22.7571C20.0016 23.3756 19.5869 23.9142 19.0022 24.126C18.9308 24.1519 18.8613 24.1838 18.7914 24.2129L1.21681 24.2143Z" fill="url(#paint0_linear_275_2097)"/>
<path d="M23.9982 9.86895C23.8807 10.0756 23.6981 10.186 23.4755 10.2611C23.055 10.4029 22.6392 10.5573 22.2281 10.7242C22.1274 10.7705 22.0471 10.852 22.0022 10.9533C21.8261 11.3938 21.6702 11.8433 21.5054 12.2885C21.3987 12.5754 21.217 12.7314 20.9888 12.7177C20.722 12.7022 20.5741 12.5402 20.4877 12.2951C20.3294 11.8475 20.1683 11.4004 19.9899 10.9604C19.9417 10.8528 19.8561 10.7663 19.7489 10.7171C19.3164 10.5419 18.8745 10.3884 18.4363 10.2278C18.1245 10.1132 18.0019 9.96946 17.9991 9.71914C17.9958 9.45991 18.117 9.31526 18.4438 9.19409C18.8599 9.03959 19.2751 8.88226 19.694 8.73667C19.8612 8.67891 19.9626 8.59015 20.0227 8.41404C20.1664 7.97822 20.3336 7.54992 20.4924 7.11926C20.5971 6.83749 20.7577 6.71068 20.9996 6.71209C21.2414 6.7135 21.3978 6.8403 21.5035 7.1249C21.6721 7.57715 21.8322 8.03317 22.0097 8.48166C22.052 8.57619 22.1276 8.65189 22.222 8.69441C22.6253 8.85846 23.0334 9.01094 23.4463 9.15183C23.6727 9.22885 23.869 9.33592 24 9.53927L23.9982 9.86895ZM19.9391 9.73887C20.5393 9.82528 20.8845 10.1334 20.9953 10.7176C21.0991 10.1254 21.4598 9.83044 22.0356 9.73981C21.7585 9.60549 21.4931 9.54209 21.326 9.37819C21.1588 9.21429 21.0996 8.95552 20.9869 8.72634C20.6741 9.39087 20.6741 9.39087 19.9377 9.73887H19.9391Z" fill="url(#paint1_linear_275_2097)"/>
<path d="M5.75251 13.4513C5.75251 11.7331 5.75251 10.0149 5.75251 8.29665C5.75251 7.61334 6.11319 7.13009 6.72935 6.99014C7.12384 6.90091 7.48076 7.00845 7.81701 7.22495C9.81263 8.51926 11.8097 9.81184 13.8081 11.1027C14.3773 11.4714 14.9484 11.8386 15.5161 12.2096C16.5066 12.8563 16.5104 14.0656 15.5161 14.7109C12.9454 16.3806 10.3723 18.0462 7.79682 19.7077C6.98858 20.2295 6.0357 19.912 5.79901 19.0442C5.76235 18.8847 5.74656 18.7211 5.75204 18.5576C5.75048 16.8563 5.75064 15.1542 5.75251 13.4513ZM6.75095 13.4546C6.75095 15.149 6.74766 16.8435 6.75705 18.5374C6.75705 18.6685 6.81153 18.8634 6.90264 18.9131C6.99375 18.9629 7.18442 18.899 7.29619 18.8277C9.84754 17.1861 12.3959 15.5401 14.9413 13.8895C15.3583 13.6194 15.3574 13.31 14.939 13.039C12.3926 11.3893 9.84472 9.74217 7.29525 8.09753C7.18395 8.02614 6.99046 7.96697 6.8956 8.01722C6.80073 8.06747 6.75752 8.26284 6.75471 8.39292C6.74813 10.0817 6.75095 11.7682 6.75095 13.456V13.4546Z" fill="url(#paint2_linear_275_2097)"/>
<path d="M21.748 5.45398C21.7508 5.70758 21.6282 5.86115 21.3253 5.97339C20.3546 6.33313 19.3848 6.69568 18.4108 7.04603C18.3335 7.06796 18.2629 7.10888 18.2055 7.16507C18.1481 7.22126 18.1056 7.29093 18.082 7.36773C17.7312 8.34221 17.3682 9.312 17.0084 10.2832C16.8953 10.5889 16.7436 10.7134 16.4918 10.7115C16.2401 10.7096 16.0978 10.5889 15.9823 10.2762C15.6197 9.29791 15.2562 8.31967 14.9021 7.33908C14.8827 7.27292 14.8473 7.21258 14.799 7.16342C14.7506 7.11426 14.6909 7.07781 14.6251 7.0573C13.6445 6.70085 12.6681 6.33313 11.6875 5.97715C11.4396 5.88698 11.2573 5.75407 11.2479 5.46901C11.2395 5.21728 11.3705 5.06653 11.6964 4.94584C12.6672 4.58516 13.637 4.22308 14.6105 3.86897C14.6797 3.84814 14.7427 3.81059 14.794 3.75965C14.8453 3.70871 14.8832 3.64593 14.9045 3.57686C15.2572 2.60285 15.6193 1.63259 15.9795 0.661862C16.1049 0.332181 16.249 0.212425 16.5045 0.212425C16.76 0.212425 16.8971 0.335938 17.0211 0.670316C17.3785 1.634 17.7382 2.5958 18.0881 3.56324C18.11 3.63635 18.1496 3.70291 18.2034 3.75699C18.2573 3.81107 18.3237 3.85099 18.3967 3.8732C19.3777 4.22683 20.3555 4.5908 21.3333 4.95335C21.6216 5.05902 21.7437 5.21212 21.748 5.45398ZM13.2251 5.45398C13.3472 5.50564 13.4078 5.53429 13.4707 5.55777C14.0615 5.77709 14.6504 6.00251 15.245 6.21102C15.3637 6.24703 15.4718 6.3117 15.5597 6.39933C15.6476 6.48696 15.7125 6.59486 15.7489 6.71353C15.956 7.30902 16.1824 7.89747 16.4021 8.48827C16.428 8.5573 16.4599 8.62352 16.5092 8.73764C16.7699 8.03319 17.0183 7.379 17.2494 6.71823C17.3395 6.46228 17.4875 6.29274 17.75 6.21243C17.9806 6.14246 18.2051 6.05229 18.4309 5.96823C18.8639 5.80667 19.2955 5.64324 19.7361 5.47746C19.7098 5.44271 19.7032 5.42486 19.6919 5.42064C19.1889 5.23278 18.685 5.04493 18.1825 4.85708C17.2761 4.51659 17.4428 4.69412 17.0991 3.77223C16.9065 3.26503 16.7187 2.74843 16.5073 2.18488C16.4576 2.30275 16.4261 2.37273 16.3998 2.44129C16.1824 3.02458 15.9565 3.60504 15.7536 4.19349C15.7172 4.31612 15.651 4.42781 15.5608 4.51854C15.4707 4.60928 15.3594 4.67622 15.237 4.71337C14.5842 4.94349 13.9385 5.19052 13.2251 5.45492V5.45398Z" fill="url(#paint3_linear_275_2097)"/>
<path d="M20.4927 2.96963C20.3128 2.96963 20.1639 2.97621 20.0193 2.96963C19.7074 2.95319 19.4942 2.73482 19.5027 2.45304C19.5088 2.17736 19.7187 1.97307 20.0193 1.95758C20.1658 1.95053 20.3128 1.95758 20.4931 1.95758C20.4931 1.80354 20.4898 1.66594 20.4931 1.5288C20.5035 1.17846 20.7073 0.96055 21.0144 0.965246C21.3079 0.971351 21.5028 1.19302 21.5085 1.5288C21.5085 1.65983 21.5085 1.79133 21.5085 1.95476C21.6686 1.95476 21.8142 1.95053 21.9593 1.95476C22.281 1.96509 22.4924 2.16187 22.4975 2.45022C22.5027 2.75219 22.2918 2.95883 21.9603 2.9701C21.8194 2.97527 21.6813 2.9701 21.5085 2.9701C21.5085 3.12085 21.5085 3.25799 21.5085 3.39277C21.5028 3.72903 21.3079 3.95116 21.0154 3.95633C20.7082 3.9629 20.5035 3.74452 20.4931 3.39277C20.4894 3.26503 20.4927 3.13541 20.4927 2.96963Z" fill="url(#paint4_linear_275_2097)"/>
<defs>
<linearGradient id="paint0_linear_275_2097" x1="10.0027" y1="2.70004" x2="10.0027" y2="24.2143" gradientUnits="userSpaceOnUse">
<stop stop-color="#CBFB90"/>
<stop offset="1" stop-color="#5AEAF4"/>
</linearGradient>
<linearGradient id="paint1_linear_275_2097" x1="20.9995" y1="6.71208" x2="20.9995" y2="12.7186" gradientUnits="userSpaceOnUse">
<stop stop-color="#CBFB90"/>
<stop offset="1" stop-color="#5AEAF4"/>
</linearGradient>
<linearGradient id="paint2_linear_275_2097" x1="11.0057" y1="6.95868" x2="11.0057" y2="19.9605" gradientUnits="userSpaceOnUse">
<stop stop-color="#CBFB90"/>
<stop offset="1" stop-color="#5AEAF4"/>
</linearGradient>
<linearGradient id="paint3_linear_275_2097" x1="16.4978" y1="0.212425" x2="16.4978" y2="10.7115" gradientUnits="userSpaceOnUse">
<stop stop-color="#CBFB90"/>
<stop offset="1" stop-color="#5AEAF4"/>
</linearGradient>
<linearGradient id="paint4_linear_275_2097" x1="21" y1="0.965172" x2="21" y2="3.95647" gradientUnits="userSpaceOnUse">
<stop stop-color="#CBFB90"/>
<stop offset="1" stop-color="#5AEAF4"/>
</linearGradient>
</defs>
</svg>
