<svg width="24" height="25" viewBox="0 0 24 25" fill="none" xmlns="http://www.w3.org/2000/svg">
<path d="M0 3.91788C0.0441561 3.81172 0.0826752 3.70368 0.132938 3.60033C0.430757 2.98966 0.935264 2.70781 1.60324 2.70781C3.39235 2.70594 5.18161 2.70594 6.97103 2.70781H12.4797C12.5422 2.70781 12.6047 2.70781 12.6676 2.70781C13.0185 2.71627 13.2539 2.91638 13.259 3.21138C13.2642 3.51484 13.0242 3.72481 12.6587 3.72481C10.2132 3.72481 7.76772 3.72481 5.32222 3.72481C4.08773 3.72481 2.85324 3.72481 1.61874 3.72481C1.18235 3.72481 1.00573 3.8958 1.00573 4.33267C1.00385 7.47339 1.00385 10.6144 1.00573 13.7558C1.00573 13.8154 1.017 13.8746 1.02264 13.9343L1.10014 13.9939C1.1443 13.9197 1.17624 13.8333 1.23496 13.7736C2.00597 12.9976 2.77917 12.2238 3.55457 11.4521C3.87869 11.1289 4.12907 11.1285 4.45507 11.4554C5.21089 12.2127 5.96483 12.9722 6.74085 13.752C6.81883 13.6778 6.88506 13.6177 6.94895 13.5542L11.4745 9.03012C11.9034 8.60124 12.1016 8.59937 12.5244 9.02214L18.7565 15.2538C18.8204 15.3177 18.8875 15.3787 18.9942 15.4802V14.435C18.9942 14.0522 18.9909 13.6693 18.9942 13.2865C18.9979 12.9473 19.1947 12.7289 19.4912 12.7228C19.7993 12.7176 20.0079 12.9384 20.0079 13.2865C20.0098 16.4278 20.0098 19.5689 20.0079 22.7096C20.0079 23.5819 19.3404 24.2128 18.4615 24.2128H1.56237C0.7934 24.2179 0.267755 23.8238 0.0422771 23.0812C0.0310198 23.0524 0.016854 23.0248 0 22.999L0 3.91788ZM12.0372 9.91888C11.9672 9.97525 11.9433 9.99216 11.9203 10.0128C8.31888 13.6142 4.71828 17.2175 1.11846 20.8226C1.04993 20.9024 1.01124 21.0035 1.00901 21.1087C0.99821 21.6005 1.00244 22.0928 1.00479 22.5851C1.00713 23.0492 1.17765 23.2188 1.64505 23.2188C7.21529 23.2188 12.7855 23.2188 18.3558 23.2188C18.8255 23.2188 18.9937 23.052 18.9942 22.5879C18.9942 20.7832 18.9942 18.9784 18.9979 17.1736C19.002 17.0937 18.9884 17.0139 18.9582 16.9398C18.9281 16.8657 18.8819 16.7991 18.8232 16.7448C16.6088 14.5395 14.3985 12.3307 12.1923 10.1185C12.1367 10.0551 12.0849 9.98845 12.0372 9.91888ZM5.99161 14.4604L3.98344 12.4579C3.95733 12.4775 3.93239 12.4987 3.90875 12.5213C2.97584 13.4537 2.04105 14.3843 1.11518 15.3238C1.04518 15.3952 1.00948 15.5295 1.00901 15.6352C1.0015 16.8373 1.00385 18.0389 1.00479 19.241C1.00479 19.3068 1.01418 19.372 1.01841 19.4317L5.99161 14.4604Z" fill="url(#paint0_linear_275_2088)"/>
<path d="M16.6433 0.213924C16.8547 0.31398 16.9614 0.489195 17.0398 0.705278C17.386 1.66544 17.7472 2.61996 18.0953 3.57965C18.1159 3.64908 18.1533 3.71237 18.2042 3.7639C18.2551 3.81544 18.3179 3.85364 18.387 3.87512C19.3533 4.22508 20.3172 4.58538 21.2793 4.94333C21.6325 5.07438 21.7542 5.21202 21.749 5.47461C21.7438 5.79075 21.5249 5.90865 21.2689 6.00213C20.3102 6.35209 19.3552 6.71145 18.3955 7.05812C18.3225 7.08067 18.2563 7.1209 18.2026 7.17524C18.1489 7.22957 18.1095 7.29632 18.0878 7.36956C17.7355 8.34428 17.3733 9.31525 17.013 10.2867C16.8984 10.5962 16.7533 10.716 16.5001 10.716C16.2469 10.716 16.1008 10.5962 15.9862 10.2872C15.6263 9.31525 15.2642 8.34475 14.9119 7.3705C14.8908 7.29762 14.8521 7.23102 14.7993 7.17655C14.7465 7.12209 14.6811 7.08142 14.6089 7.05812C13.6346 6.70487 12.6641 6.34176 11.6922 5.98193C11.3798 5.86591 11.2563 5.7231 11.254 5.47508C11.2511 5.21719 11.3756 5.0725 11.7026 4.95178C12.6829 4.58961 13.6619 4.23166 14.6371 3.85868C14.7524 3.80736 14.8442 3.71443 14.894 3.59844C15.2642 2.63077 15.6243 1.65996 15.9744 0.686019C16.0501 0.474633 16.1623 0.316329 16.362 0.216273L16.6433 0.213924ZM13.2795 5.44501V5.49762C13.9371 5.73954 14.592 5.98616 15.2524 6.22009C15.4995 6.30747 15.6569 6.45497 15.7447 6.70581C15.9561 7.30849 16.1839 7.9046 16.4061 8.50306C16.4306 8.56929 16.4592 8.63365 16.5081 8.75343C16.7744 8.03143 17.0224 7.37661 17.2564 6.71708C17.3442 6.47 17.4912 6.31357 17.7421 6.22573C18.3528 6.01341 18.9559 5.78276 19.5619 5.55775C19.6201 5.53614 19.6746 5.50373 19.7704 5.4577C19.0682 5.19746 18.4138 4.94661 17.7562 4.7155C17.6374 4.67923 17.5295 4.61426 17.4418 4.52635C17.3541 4.43844 17.2895 4.33029 17.2535 4.21146C17.0431 3.60878 16.8153 3.0122 16.5931 2.41374C16.5715 2.35456 16.5386 2.29913 16.4916 2.20095C16.2309 2.90557 15.9815 3.55945 15.7494 4.22086C15.7134 4.33996 15.6481 4.44812 15.5595 4.53544C15.4708 4.62277 15.3617 4.68645 15.2421 4.72067C14.8945 4.8334 14.5544 4.96869 14.2115 5.09646C13.9005 5.21014 13.59 5.32805 13.2795 5.44501Z" fill="url(#paint1_linear_275_2088)"/>
<path d="M18.0006 9.81647C17.9964 9.48765 18.1143 9.32371 18.3764 9.22459C18.8358 9.05173 19.2994 8.89014 19.7546 8.70787C19.8556 8.66293 19.9367 8.58255 19.9825 8.48193C20.1633 8.03426 20.3226 7.57814 20.4926 7.12577C20.5992 6.8411 20.7547 6.71944 21.0013 6.7232C21.2658 6.72696 21.4091 6.8815 21.4941 7.11544C21.6562 7.56216 21.8295 8.00466 21.984 8.45421C22.0036 8.52054 22.0398 8.58078 22.0891 8.62927C22.1384 8.67776 22.1992 8.71289 22.2659 8.73136C22.7065 8.88591 23.142 9.05643 23.5812 9.21285C23.824 9.29928 23.9894 9.44303 23.9997 9.71407C24.0086 9.94894 23.8719 10.1162 23.592 10.2219C23.1471 10.3896 22.6995 10.5427 22.2574 10.7226C22.1433 10.7738 22.0514 10.8643 21.9986 10.9777C21.822 11.4103 21.6698 11.8533 21.5082 12.293C21.4001 12.5852 21.2263 12.7298 20.9915 12.728C20.7566 12.7261 20.5959 12.587 20.4837 12.2864C20.3235 11.8556 20.16 11.4258 20.0074 10.9927C19.9889 10.9261 19.9539 10.8653 19.9055 10.816C19.8571 10.7667 19.7969 10.7305 19.7307 10.7109C19.267 10.5502 18.809 10.3727 18.3491 10.2017C18.1293 10.1195 18.0053 9.96773 18.0006 9.81647ZM20.9924 8.71633C20.882 9.29318 20.5555 9.60885 19.9768 9.71877C20.5429 9.83667 20.8881 10.1453 20.9633 10.7588C21.1042 10.4769 21.1714 10.2129 21.3363 10.0504C21.5011 9.88787 21.7647 9.82446 22.0503 9.68635C21.4349 9.60885 21.107 9.29083 20.9924 8.71633Z" fill="url(#paint2_linear_275_2088)"/>
<path d="M6.99172 9.46791C6.46276 9.46605 5.9561 9.25458 5.58277 8.87983C5.20943 8.50509 4.99987 7.99764 5 7.46867C5 6.34598 5.89862 5.46051 7.03353 5.46803C8.1379 5.47554 9.00975 6.38168 8.99989 7.51142C8.99049 8.58902 8.08247 9.47308 6.99172 9.46791ZM7.99322 7.47619C7.99508 7.34555 7.97104 7.21584 7.92247 7.09454C7.87391 6.97325 7.80179 6.86279 7.71028 6.76953C7.61878 6.67628 7.50969 6.60208 7.38934 6.55123C7.26899 6.50038 7.13975 6.47389 7.0091 6.47328C6.74507 6.47213 6.49121 6.575 6.30246 6.75962C6.11371 6.94424 6.00525 7.19576 6.00056 7.45975C6.00278 7.7234 6.10725 7.97589 6.29197 8.16402C6.47669 8.35216 6.72722 8.46124 6.99078 8.46829C7.25507 8.46794 7.50856 8.36336 7.69624 8.17727C7.88391 7.99118 7.99062 7.73859 7.99322 7.47431V7.47619Z" fill="url(#paint3_linear_275_2088)"/>
<path d="M20.4953 1.95856C20.4953 1.77067 20.4882 1.62223 20.4953 1.4752C20.5126 1.1755 20.7254 0.966461 21.0016 0.966931C21.2779 0.967401 21.4902 1.17456 21.508 1.47567C21.517 1.62317 21.508 1.77114 21.508 1.95762C21.641 1.95762 21.7622 1.95762 21.8838 1.95762C22.2737 1.96185 22.5039 2.15633 22.4992 2.47435C22.495 2.78438 22.2671 2.97087 21.8885 2.97322H21.5141C21.5141 3.13293 21.5179 3.27855 21.5141 3.4237C21.5029 3.75628 21.2957 3.96861 20.9937 3.96297C20.7052 3.95733 20.5084 3.74501 20.4981 3.42229C20.4938 3.28137 20.4981 3.14373 20.4981 2.97322C20.336 2.97322 20.1904 2.9765 20.0448 2.97322C19.7263 2.96429 19.5111 2.76277 19.5079 2.47435C19.5046 2.18592 19.7117 1.97735 20.0307 1.95762C20.1735 1.95199 20.3205 1.95856 20.4953 1.95856Z" fill="url(#paint4_linear_275_2088)"/>
<defs>
<linearGradient id="paint0_linear_275_2088" x1="10.0046" y1="2.70641" x2="10.0046" y2="24.2128" gradientUnits="userSpaceOnUse">
<stop stop-color="#CBFB90"/>
<stop offset="1" stop-color="#5AEAF4"/>
</linearGradient>
<linearGradient id="paint1_linear_275_2088" x1="16.5015" y1="0.213924" x2="16.5015" y2="10.716" gradientUnits="userSpaceOnUse">
<stop stop-color="#CBFB90"/>
<stop offset="1" stop-color="#5AEAF4"/>
</linearGradient>
<linearGradient id="paint2_linear_275_2088" x1="21.0003" y1="6.72311" x2="21.0003" y2="12.728" gradientUnits="userSpaceOnUse">
<stop stop-color="#CBFB90"/>
<stop offset="1" stop-color="#5AEAF4"/>
</linearGradient>
<linearGradient id="paint3_linear_275_2088" x1="6.99998" y1="5.46798" x2="6.99998" y2="9.46793" gradientUnits="userSpaceOnUse">
<stop stop-color="#CBFB90"/>
<stop offset="1" stop-color="#5AEAF4"/>
</linearGradient>
<linearGradient id="paint4_linear_275_2088" x1="21.0035" y1="0.96693" x2="21.0035" y2="3.96308" gradientUnits="userSpaceOnUse">
<stop stop-color="#CBFB90"/>
<stop offset="1" stop-color="#5AEAF4"/>
</linearGradient>
</defs>
</svg>
