<svg width="24" height="24" viewBox="0 0 24 24" fill="none" xmlns="http://www.w3.org/2000/svg">
<path d="M23.9996 7.40578C23.9257 7.78679 23.8699 8.1719 23.7736 8.54703C23.4272 9.89316 22.7116 11.0168 21.669 11.9303C21.5199 12.0612 21.46 12.1892 21.4629 12.3876C21.4747 13.1684 21.4641 13.9498 21.47 14.7306C21.4717 14.9619 21.4142 15.1532 21.1899 15.2478C20.9598 15.3446 20.769 15.2624 20.6 15.0922C20.0939 14.582 19.5779 14.0818 19.0795 13.5641C18.9579 13.4378 18.8499 13.4238 18.6926 13.4531C17.1874 13.7314 15.6798 13.7525 14.1916 13.3721C12.7791 13.011 11.6156 12.2267 10.7068 11.0931C9.51858 9.61137 8.99257 7.90655 9.24501 6.0209C9.60311 3.34508 11.0714 1.48116 13.5717 0.46554C14.0982 0.251849 14.6835 0.181989 15.2418 0.0457908C15.3017 0.0299401 15.3616 0.0146765 15.4215 0C16.2029 0 16.9837 0 17.765 0C17.8408 0.0164377 17.9159 0.0322884 17.9916 0.0487261C18.4096 0.137959 18.8417 0.185512 19.2427 0.323471C21.6391 1.15005 23.1748 2.78972 23.8106 5.25244C23.894 5.57415 23.9374 5.90643 23.999 6.23401V7.40578H23.9996ZM20.4808 13.6451C20.4978 13.6339 20.5148 13.6228 20.5319 13.6116C20.5319 13.0968 20.5471 12.5807 20.526 12.0671C20.5137 11.7694 20.6293 11.5733 20.8459 11.3843C21.1629 11.1084 21.4852 10.8272 21.7453 10.5008C22.822 9.15053 23.2558 7.60656 22.9687 5.89997C22.6018 3.71845 21.3573 2.21029 19.3243 1.35494C18.1595 0.864742 16.9296 0.910533 15.7033 0.958085C14.9947 0.985677 14.3143 1.14771 13.6656 1.43126C11.2246 2.49677 9.78041 5.08454 10.2107 7.71634C10.4978 9.47283 11.4025 10.8254 12.8942 11.7829C13.7718 12.3459 14.7387 12.6424 15.7849 12.6676C16.7752 12.6917 17.7697 12.7522 18.7372 12.4686C19.0595 12.3741 19.3055 12.4334 19.5344 12.6841C19.8368 13.0163 20.1638 13.3257 20.4802 13.6451H20.4808Z" fill="#14CEF4"/>
<path d="M7.87597 22.3689C7.87597 22.08 7.87479 21.8317 7.87597 21.584C7.87773 21.1671 8.04211 21.001 8.45716 21.0004C10.0504 20.9992 11.6443 21.0004 13.2376 21.0004C14.7405 21.0004 15.7491 19.9918 15.7502 18.4913C15.7508 17.4839 15.7514 16.4759 15.7496 15.4685C15.7496 15.2519 15.8283 15.0629 16.0338 15.0059C16.1729 14.9678 16.3672 14.9883 16.487 15.0629C16.5897 15.1269 16.676 15.3042 16.6772 15.4327C16.6901 16.5963 16.7159 17.7616 16.6731 18.924C16.6191 20.3793 15.3821 21.6902 13.9403 21.8886C13.7325 21.9174 13.5212 21.9338 13.3116 21.9344C11.9056 21.9385 10.4995 21.9362 9.09354 21.9368H8.81233C8.81233 22.437 8.80705 22.9189 8.81468 23.4003C8.81879 23.6445 8.77476 23.8547 8.52643 23.9598C8.27752 24.0655 8.09083 23.9481 7.92117 23.7778C7.3529 23.2084 6.78638 22.6366 6.2093 22.0759C6.13122 22.0002 5.99796 21.9438 5.88935 21.9426C5.03048 21.9321 4.17102 21.9391 3.31157 21.9362C1.44588 21.9303 0.00523416 20.4914 0.00288592 18.6246C-0.000636452 16.2423 -0.000636452 13.8594 0.00288592 11.4771C0.00523416 9.59733 1.44471 8.16138 3.32742 8.15786C4.85847 8.15492 6.38953 8.15668 7.92059 8.15786C8.22997 8.15786 8.41959 8.28584 8.47301 8.5236C8.53465 8.79541 8.34092 9.06134 8.05502 9.08894C7.94642 9.0995 7.83664 9.09305 7.72686 9.09305C6.29736 9.09305 4.86787 9.09305 3.43837 9.09305C1.95134 9.09363 0.938075 10.1051 0.937488 11.5904C0.936901 13.8946 0.936901 16.1994 0.937488 18.5036C0.937488 19.9883 1.95134 20.9992 3.43837 21.0004C4.36006 21.001 5.28174 21.0051 6.20343 20.9975C6.44119 20.9957 6.60087 21.0803 6.76349 21.2617C7.10163 21.6386 7.47912 21.979 7.87597 22.3694V22.3689Z" fill="#14CEF4"/>
<path d="M7.94823 15.4676C6.35612 15.4676 4.76401 15.4676 3.17131 15.4676C3.09323 15.4676 3.01457 15.4717 2.93766 15.4612C2.70049 15.4289 2.52965 15.2269 2.53376 14.9915C2.53787 14.7655 2.7046 14.5729 2.93179 14.5401C3.0087 14.5289 3.08736 14.533 3.16544 14.533C6.34966 14.533 9.53447 14.533 12.7187 14.533C12.7968 14.533 12.8754 14.5289 12.9523 14.5395C13.1895 14.5718 13.3604 14.7737 13.3562 15.0097C13.3521 15.2357 13.1854 15.4283 12.9582 15.4612C12.8813 15.4723 12.8026 15.4682 12.7246 15.4682C11.1325 15.4682 9.54034 15.4682 7.94765 15.4682L7.94823 15.4676Z" fill="#14CEF4"/>
<path d="M7.00715 18.0925C5.7344 18.0925 4.46107 18.0925 3.18832 18.0925C3.11024 18.0925 3.03157 18.0966 2.95408 18.0878C2.71338 18.0614 2.53726 17.8671 2.53374 17.6316C2.53022 17.3868 2.71162 17.1861 2.96288 17.1602C3.01689 17.1544 3.07208 17.1567 3.12667 17.1567C5.72736 17.1567 8.32804 17.1567 10.9287 17.1567C10.9833 17.1567 11.0385 17.1544 11.0925 17.1608C11.3285 17.1884 11.5128 17.388 11.5175 17.617C11.5228 17.8518 11.3303 18.0702 11.0831 18.0866C10.8653 18.1007 10.6458 18.0925 10.4274 18.0925C9.2873 18.0925 8.14664 18.0925 7.00656 18.0925H7.00715Z" fill="#14CEF4"/>
<path d="M6.42356 11.907C7.50786 11.907 8.59275 11.907 9.67705 11.907C9.75513 11.907 9.8338 11.9029 9.91071 11.9141C10.1379 11.9464 10.3052 12.1389 10.3099 12.3644C10.3146 12.5998 10.1444 12.8023 9.90777 12.8358C9.8385 12.8457 9.76746 12.8422 9.6976 12.8422C7.51314 12.8422 5.3281 12.8422 3.14364 12.8422C3.07378 12.8422 3.00216 12.8452 2.93348 12.8352C2.70628 12.8017 2.53897 12.6103 2.53427 12.3843C2.52958 12.1489 2.69983 11.9464 2.93641 11.9135C3.01332 11.9029 3.09198 11.907 3.17006 11.907C4.25437 11.907 5.33926 11.907 6.42356 11.907Z" fill="#14CEF4"/>
<path d="M13.3568 17.6132C13.3627 17.8633 13.1578 18.0811 12.9077 18.0905C12.6488 18.0999 12.4246 17.8833 12.4246 17.6238C12.4246 17.3731 12.6347 17.1612 12.8854 17.1582C13.1355 17.1553 13.3509 17.3631 13.3568 17.6132Z" fill="#14CEF4"/>
<path d="M16.2575 7.66978C16.2575 7.52125 16.2551 7.37331 16.2575 7.22479C16.2669 6.71228 16.4712 6.4346 16.9667 6.28314C17.3829 6.15575 17.6494 5.89568 17.7445 5.46595C17.8701 4.90178 17.4786 4.34994 16.8733 4.24134C16.3362 4.14506 15.7732 4.55659 15.6998 5.09786C15.688 5.1824 15.6792 5.26811 15.6599 5.35147C15.5959 5.62622 15.401 5.76065 15.1309 5.72073C14.8943 5.68551 14.7288 5.47417 14.7382 5.21997C14.7769 4.20553 15.5871 3.34313 16.554 3.28795C17.6353 3.22572 18.5277 3.93959 18.6909 4.99806C18.83 5.90272 18.2805 6.82147 17.4075 7.12205C17.2502 7.17606 17.1833 7.24533 17.195 7.41734C17.2115 7.65804 17.1997 7.90108 17.1991 8.14295C17.1974 8.51984 17.023 8.74938 16.733 8.75643C16.4348 8.76406 16.2592 8.53628 16.2569 8.13767C16.2557 7.98151 16.2569 7.82535 16.2569 7.66919L16.2575 7.66978Z" fill="#14CEF4"/>
<path d="M16.7319 10.6026C16.4736 10.6056 16.2704 10.413 16.2634 10.1576C16.2558 9.89582 16.4636 9.67332 16.7189 9.66804C16.9649 9.66334 17.2009 9.89875 17.1974 10.1453C17.1939 10.3913 16.982 10.5997 16.7324 10.6026H16.7319Z" fill="#14CEF4"/>
</svg>
