<svg width="24" height="24" viewBox="0 0 24 24" fill="none" xmlns="http://www.w3.org/2000/svg">
<path d="M6.01331 17.1704C6.15038 16.8473 6.27289 16.5579 6.40004 16.2579C5.12926 15.1997 4.8008 14.7441 4.52864 13.6329C3.68631 13.5846 3.08237 13.1932 2.8996 12.333C2.74597 11.6092 3.04926 11.0463 3.61015 10.6656C3.40156 10.3027 3.13137 9.97223 3.01615 9.59411C2.89232 9.18685 2.85391 8.73059 2.88636 8.30413C2.9347 7.65847 3.73134 7.34525 4.2717 7.73529C4.4293 7.84919 4.50811 7.83793 4.6379 7.70681C5.05708 7.28499 5.46103 6.84131 5.92325 6.47113C7.36686 5.31491 9.45216 5.4255 10.7958 6.69827C11.0759 6.96381 11.3851 7.21347 11.3971 7.64258C12.401 7.75648 13.0407 8.28227 13.1546 9.14248C13.2115 9.57358 13.1665 10.0173 13.1824 10.4543C13.1857 10.5457 13.232 10.6656 13.3003 10.7205C13.883 11.19 14.1088 11.837 13.9035 12.4992C13.7002 13.1561 13.1433 13.5667 12.3957 13.6124C12.3718 13.6137 12.348 13.6223 12.3089 13.6309C12.0341 14.8024 11.3752 15.7003 10.3461 16.295C10.6223 16.5831 10.8845 16.8771 11.1726 17.144C11.2494 17.2155 11.4044 17.2108 11.5249 17.2254C12.6354 17.3565 13.6254 17.777 14.4929 18.4783C15.661 19.4226 16.3438 20.657 16.5894 22.1291C16.6868 22.7111 16.7245 23.3032 16.7921 23.9117H15.967C15.9279 22.9396 15.8385 21.9642 15.4531 21.0483C15.065 20.1272 14.4518 19.3882 13.5737 18.8001C13.5737 18.9313 13.5737 19.0246 13.5737 19.118C13.5737 19.6471 13.5771 20.1755 13.5724 20.7046C13.5698 21.0629 13.3267 21.2331 12.9917 21.1073C12.5679 20.9477 12.1493 20.7748 11.6977 20.596C11.5765 21.1536 11.4368 21.694 11.3474 22.243C11.2587 22.7873 11.2222 23.3402 11.1607 23.9091H10.368C10.4223 23.3475 10.4302 22.7846 10.5395 22.241C10.8077 20.9086 11.1229 19.5855 11.4183 18.2584C11.4328 18.1942 11.4434 18.13 11.4712 17.9896C11.3633 18.0393 11.2759 18.0505 11.2408 18.0995C11.0262 18.4015 10.8335 18.718 10.6157 19.0173C10.2064 19.5776 9.78525 20.1285 9.36011 20.696C9.76406 21.29 9.63824 21.835 9.21972 22.3734C8.8767 22.8151 8.56943 23.2853 8.23105 23.7641C8.00788 23.6064 7.80127 23.4601 7.57811 23.3018C7.93106 22.8012 8.2774 22.3092 8.6244 21.8178C8.90782 21.4165 8.87405 21.2477 8.45553 21.0079C7.6973 20.5735 6.93775 20.1411 6.15833 19.6968C5.30276 20.9179 4.45182 22.1324 3.5883 23.3647C3.36447 23.2085 3.15786 23.0634 2.93337 22.9072C3.38765 22.2562 3.82934 21.6225 4.31011 20.9331C4.10548 21.0099 3.9651 21.0689 3.82073 21.1165C3.51016 21.2192 3.26779 21.053 3.26514 20.7265C3.25918 20.1007 3.26315 19.4756 3.26315 18.8008C1.42221 20.0431 0.907677 21.8509 0.879202 23.9058H0.122298C-0.125369 20.3822 2.22945 17.2141 6.01331 17.1711V17.1704ZM7.88074 16.2361C7.92908 16.1824 7.95226 16.1599 7.97212 16.1347C8.3966 15.5844 8.86875 15.4553 9.5197 15.6964C9.59652 15.7248 9.71174 15.707 9.78922 15.6692C10.4766 15.3374 10.9772 14.8209 11.2997 14.1283C11.7355 13.1939 11.5487 12.2045 11.5951 11.2139C10.6534 11.1172 10.2144 10.3371 9.58725 9.81661C8.67406 10.5927 7.63638 11.0496 6.46361 11.2112C6.76359 11.2629 7.16886 11.1212 7.21522 11.6059C7.22581 11.7185 7.13443 11.882 7.03907 11.9529C6.93643 12.029 6.77352 12.0238 6.63247 12.0549C6.85829 12.2906 6.89007 12.5098 6.72982 12.6879C6.58612 12.8482 6.32786 12.8707 6.17621 12.7184C6.11131 12.6535 6.0398 12.5449 6.04973 12.4661C6.06893 12.3158 6.14443 12.1727 6.1974 12.0244C5.99741 12.041 5.74048 12.0363 5.67955 11.7708C5.64247 11.6085 5.73319 11.4172 5.76432 11.2496H5.24316C5.24316 11.7635 5.23124 12.2588 5.24515 12.7535C5.28554 14.1792 5.94841 15.1937 7.26422 15.7705C7.36024 15.8129 7.45096 15.8725 7.53374 15.9367C7.65227 16.0288 7.76154 16.1328 7.87941 16.2361H7.88074ZM12.3851 10.4139C12.3851 10.0888 12.3917 9.76827 12.3838 9.44776C12.3732 9.03454 12.205 8.69483 11.8063 8.54914C11.4269 8.41074 11.0342 8.31671 10.7051 8.70807C10.5355 8.90938 10.2766 8.89746 10.115 8.72993C9.95411 8.56305 9.96736 8.33326 10.1541 8.13592C10.268 8.01606 10.3839 7.89819 10.5044 7.78562C10.5958 7.69953 10.5898 7.63198 10.5077 7.53596C9.38726 6.22545 7.44169 6.11354 6.1835 7.29624C5.85239 7.60748 5.5385 7.93594 5.21667 8.25645C4.72332 8.74847 4.37434 8.77959 3.80087 8.38227C3.78299 8.36968 3.75451 8.37167 3.7214 8.36571C3.70087 8.39948 3.66578 8.43127 3.66247 8.46637C3.55453 9.62126 4.27368 10.3749 5.21799 10.4305C6.76227 10.5219 8.13767 10.1073 9.27336 9.01335C9.51904 8.77694 9.70843 8.78423 9.95742 9.02991C10.2336 9.30274 10.5269 9.56166 10.7766 9.85701C11.1984 10.3543 11.7222 10.5186 12.3844 10.4133L12.3851 10.4139ZM8.7085 20.2285C9.29257 19.4445 9.87332 18.675 10.4415 17.8962C10.566 17.726 10.511 17.5413 10.3561 17.4082C9.98656 17.091 9.61374 16.7771 9.23231 16.4745C9.02437 16.3096 8.8171 16.3493 8.65287 16.5658C8.55354 16.697 8.4701 16.8407 8.37342 16.9744C8.21052 17.2016 8.01053 17.2426 7.77412 17.1009C7.68207 17.0459 7.59201 16.9877 7.50593 16.9241C7.34898 16.8082 7.18409 16.734 7.01258 16.8797C6.82849 17.036 6.89405 17.2175 6.98742 17.3949C7.04106 17.4969 7.08542 17.6048 7.1437 17.7035C7.2629 17.9048 7.24568 18.0896 7.11191 18.2796C6.94239 18.5207 6.78412 18.7697 6.61062 19.0299C7.3172 19.4339 8.00192 19.8252 8.70717 20.2279L8.7085 20.2285ZM11.8871 19.8007C12.1811 19.9186 12.4672 20.0332 12.7817 20.159C12.7817 19.5776 12.7837 19.0293 12.7784 18.4803C12.7784 18.4346 12.7407 18.3644 12.7023 18.3478C12.5639 18.2882 12.4169 18.2459 12.2593 18.1929C12.1308 18.7478 12.0116 19.2657 11.8878 19.8014L11.8871 19.8007ZM4.95046 19.8027C4.82398 19.2571 4.70346 18.7392 4.57698 18.1949C4.44321 18.2392 4.32401 18.2677 4.21607 18.32C4.15316 18.3505 4.0631 18.4174 4.06178 18.4697C4.05052 19.024 4.05516 19.5789 4.05516 20.1603C4.37235 20.0338 4.65247 19.9219 4.95046 19.8027ZM4.44056 11.2404C3.96178 11.298 3.65584 11.6152 3.65916 12.0291C3.66247 12.4469 3.97834 12.7641 4.44056 12.8038V11.2404ZM12.3957 12.8085C12.8784 12.7469 13.1804 12.433 13.1771 12.0185C13.1738 11.5999 12.8572 11.2821 12.3957 11.2443V12.8078V12.8085ZM5.36169 18.0154C5.44844 18.3869 5.52394 18.7101 5.61068 19.0816C5.87027 18.6929 6.10072 18.3472 6.36031 17.9585C6.00337 17.979 5.70273 17.9962 5.36169 18.0161V18.0154Z" fill="#14CEF4"/>
<path d="M18.7355 9.27271C17.927 9.28463 17.1416 9.20848 16.3754 8.91512C16.184 8.84161 15.9231 8.93565 15.6973 8.97075C15.1682 9.05418 14.6418 9.15285 14.1133 9.23629C13.7041 9.30119 13.4915 9.03829 13.6226 8.63567C13.7829 8.14232 13.9577 7.65361 14.1074 7.15696C14.1405 7.04769 14.1305 6.89538 14.0789 6.79407C12.5975 3.89823 14.4914 0.409048 17.7323 0.148138C18.7839 0.0633748 19.8586 0.0123847 20.893 0.39183C22.8194 1.09841 24.0696 3.05788 23.8763 5.10014C23.6822 7.15033 22.1294 8.8489 20.1162 9.18C19.6633 9.25417 19.1964 9.24424 18.7355 9.27271ZM14.5643 8.34297C15.0192 8.26748 15.4384 8.18868 15.8602 8.13107C16.084 8.1006 16.3463 8.03041 16.535 8.11054C17.6561 8.58534 18.8243 8.53899 19.9732 8.38138C21.5552 8.16418 22.8101 6.83843 23.0412 5.29151C23.2882 3.63665 22.4869 2.05464 21.0056 1.32157C19.8547 0.752072 18.6137 0.788494 17.4164 1.01364C14.8245 1.50103 13.5922 4.30946 14.9027 6.60136C15.0099 6.78877 15.0318 6.96227 14.9596 7.1649C14.8245 7.54302 14.704 7.92578 14.5649 8.34297H14.5643Z" fill="#14CEF4"/>
<path d="M10.231 12.0238C10.1297 12.0238 10.0635 12.0278 9.99858 12.0238C9.7635 12.0079 9.61053 11.8523 9.60987 11.6305C9.6092 11.4086 9.76217 11.2431 9.99527 11.2358C10.2588 11.2272 10.5231 11.2292 10.7866 11.2351C11.0363 11.2411 11.1959 11.404 11.1925 11.6351C11.1892 11.8556 11.0349 12.0092 10.7985 12.0238C10.7343 12.0278 10.6694 12.0238 10.5926 12.0238C10.8389 12.3251 10.8575 12.5549 10.6595 12.7238C10.5025 12.8582 10.2674 12.8496 10.1204 12.7039C9.94296 12.5278 9.97011 12.2966 10.2304 12.0238H10.231Z" fill="#14CEF4"/>
<path d="M9.21123 13.1133C9.21123 13.404 9.11256 13.5411 8.92847 13.5947C8.73444 13.651 8.54571 13.5967 8.47154 13.4027C8.30798 12.9729 8.1603 12.5365 8.03184 12.0955C7.97489 11.9015 8.07687 11.7372 8.26957 11.6591C8.44903 11.5862 8.65299 11.6147 8.72583 11.7869C8.91986 12.2471 9.07217 12.7246 9.21123 13.114V13.1133Z" fill="#14CEF4"/>
<path d="M8.43675 15.1971C8.29702 15.1971 8.15729 15.2024 8.01757 15.1958C7.78381 15.1852 7.62885 15.0282 7.62554 14.8084C7.62223 14.5872 7.77454 14.4163 8.00366 14.4091C8.28245 14.3998 8.56257 14.3991 8.84136 14.4091C9.0579 14.417 9.20557 14.5832 9.20888 14.7945C9.21219 15.015 9.05989 15.1812 8.83076 15.1951C8.69964 15.203 8.56786 15.1964 8.43675 15.1971Z" fill="#14CEF4"/>
<path d="M18.867 1.49872C19.5014 1.53116 20.0716 1.87353 20.3755 2.57745C20.6775 3.27741 20.557 3.93366 20.0596 4.51309C19.9418 4.65083 19.81 4.77731 19.6762 4.90048C19.3312 5.21834 19.1465 5.6064 19.1246 6.07723C19.1134 6.32754 18.9405 6.48051 18.7087 6.46926C18.4895 6.45866 18.3386 6.29907 18.3359 6.05935C18.33 5.47131 18.5379 4.96207 18.9266 4.527C19.0862 4.34886 19.2637 4.18728 19.4286 4.01312C19.8338 3.58666 19.8292 2.96286 19.42 2.57216C19.0173 2.18808 18.4088 2.20529 17.9982 2.6152C17.9227 2.69069 17.8167 2.76685 17.7969 2.85823C17.7724 2.96882 17.7843 3.14033 17.8545 3.20523C17.9247 3.27013 18.0949 3.26748 18.2048 3.23635C18.2962 3.21053 18.3617 3.09663 18.4425 3.02709C18.6359 2.86154 18.8604 2.86552 19.0187 3.03305C19.1657 3.18867 19.1617 3.4125 19.0081 3.59196C18.4352 4.26211 17.5446 4.26543 17.1194 3.59262C16.889 3.22841 16.8764 2.84433 17.0843 2.46488C17.4029 1.88412 18.0743 1.49607 18.865 1.49805L18.867 1.49872Z" fill="#14CEF4"/>
<path d="M19.1256 7.27536C19.1197 7.50316 18.9356 7.67136 18.7064 7.65878C18.4892 7.64686 18.3297 7.4727 18.3356 7.25218C18.3416 7.02372 18.5237 6.85684 18.7541 6.86876C18.9713 6.88002 19.1309 7.05551 19.1256 7.27536Z" fill="#14CEF4"/>
</svg>
