<svg width="26" height="24" viewBox="0 0 26 24" fill="none" xmlns="http://www.w3.org/2000/svg">
<path d="M13.8062 20.9121C13.8062 20.1157 13.796 19.3193 13.8083 18.5229C13.8286 17.2166 14.3786 16.1684 15.4771 15.4738C16.6992 14.7012 17.9505 13.9713 19.2235 13.2869C19.5833 13.0934 19.7211 12.8687 19.8175 12.5163C20.2263 11.0261 20.6513 9.53987 21.0797 8.05436C21.299 7.29327 21.9671 6.82819 22.7635 6.85671C23.4723 6.88183 24.1193 7.39375 24.2279 8.13651C24.2856 8.52961 24.4269 8.79236 24.7005 9.06462C25.0759 9.43803 25.1832 9.94113 25.0481 10.4564C24.4581 12.703 23.8559 14.9469 23.2523 17.1902C23.1464 17.5853 22.9088 17.9017 22.6032 18.1719C21.7471 18.9303 20.9005 19.6982 20.0362 20.447C19.6627 20.7709 19.4828 21.1531 19.493 21.6467C19.5059 22.2652 19.4971 22.8837 19.4957 23.5022C19.4951 23.8234 19.3457 23.9999 19.0829 23.9952C18.8297 23.9911 18.6864 23.8193 18.6858 23.5124C18.6844 22.8518 18.6912 22.1905 18.6837 21.5299C18.6763 20.8686 18.9315 20.333 19.4217 19.8984C20.2711 19.1455 21.115 18.3864 21.9691 17.6389C22.2536 17.3898 22.4369 17.0971 22.534 16.7305C23.0894 14.6319 23.6563 12.5367 24.213 10.4381C24.2531 10.286 24.2802 10.117 24.2571 9.96489C24.1994 9.59012 23.8796 9.31515 23.5286 9.30021C23.1532 9.28391 22.7988 9.52358 22.6888 9.90718C22.4803 10.6296 22.2896 11.3567 22.0947 12.0825C21.9324 12.6861 21.7695 13.2897 21.6181 13.8966C21.5869 14.0215 21.5801 14.1655 21.6079 14.2904C21.7661 14.9958 21.4972 15.6945 20.8753 16.0679C20.1068 16.5295 19.3267 16.9709 18.5486 17.4162C18.3083 17.5541 18.0713 17.497 17.9505 17.2913C17.8235 17.0754 17.8962 16.8473 18.1548 16.6966C18.8928 16.2668 19.6349 15.8438 20.3729 15.4134C20.7762 15.1785 20.929 14.7955 20.7864 14.4058C20.6044 13.9075 20.064 13.7262 19.5752 14.01C18.7048 14.5151 17.8384 15.0271 16.9701 15.5363C16.6781 15.7074 16.3862 15.8778 16.0949 16.0495C15.1132 16.6287 14.6277 17.4977 14.6216 18.6295C14.6128 20.2481 14.6182 21.866 14.6216 23.4846C14.6216 23.6835 14.5911 23.8553 14.3942 23.9537C14.1097 24.0956 13.8117 23.8987 13.8103 23.5559C13.8062 22.6746 13.8089 21.7934 13.8089 20.9121H13.8062ZM23.4472 8.46444C23.4247 8.08355 23.2475 7.83574 22.925 7.71828C22.4769 7.55534 21.9935 7.83981 21.8435 8.36395C21.5475 9.40273 21.2576 10.4435 20.9636 11.483C20.8108 12.0248 20.656 12.5666 20.5012 13.1131C20.6499 13.1824 20.7755 13.2408 20.91 13.3032C20.9358 13.2156 20.9582 13.143 20.9779 13.0697C21.2813 11.9454 21.5767 10.8183 21.8903 9.69739C22.0703 9.05579 22.515 8.67015 23.1545 8.50721C23.2503 8.48277 23.3501 8.47734 23.4472 8.46376V8.46444Z" fill="#14CEF4"/>
<path d="M12.1785 20.9056C12.1785 21.7699 12.1792 22.6342 12.1785 23.4978C12.1785 23.821 12.0312 23.9968 11.7691 23.9941C11.507 23.9914 11.3685 23.8189 11.3678 23.4896C11.3678 21.905 11.3624 20.321 11.3692 18.7364C11.3746 17.5096 10.8613 16.5964 9.79066 15.984C8.68195 15.3499 7.58614 14.6947 6.48558 14.0463C6.26764 13.918 6.04292 13.8284 5.78696 13.8942C5.45428 13.9798 5.23769 14.1923 5.1698 14.5304C5.09919 14.88 5.24992 15.1978 5.57581 15.3892C6.269 15.7952 6.96695 16.1931 7.66286 16.5943C7.73619 16.6364 7.81087 16.6765 7.8808 16.724C8.09806 16.8741 8.15441 17.094 8.03153 17.2943C7.91068 17.4912 7.68052 17.5496 7.45375 17.422C6.9235 17.1232 6.398 16.815 5.87047 16.5108C5.63623 16.3757 5.40064 16.2427 5.16844 16.1035C4.49426 15.6988 4.21453 15.0233 4.38766 14.2574C4.41278 14.1481 4.40464 14.0212 4.37612 13.9112C4.03394 12.6131 3.68564 11.3156 3.33667 10.0195C3.14996 9.32495 2.41942 9.06288 1.95638 9.52524C1.74456 9.73707 1.65697 9.99439 1.73641 10.2918C2.32369 12.4956 2.90486 14.7008 3.51183 16.8985C3.57905 17.1429 3.75965 17.3853 3.94975 17.5612C4.78959 18.3365 5.64709 19.0935 6.50799 19.8458C7.03756 20.3088 7.31728 20.8696 7.30235 21.5812C7.28945 22.1997 7.29963 22.8182 7.29963 23.4367C7.29963 23.8128 7.17199 23.9907 6.90041 23.9948C6.61933 23.9988 6.4883 23.8176 6.4883 23.4245C6.4883 22.806 6.48626 22.1874 6.4883 21.5689C6.49034 21.1364 6.33282 20.7841 6.00557 20.4969C5.14061 19.7365 4.28514 18.9652 3.4195 18.2055C3.03725 17.8701 2.79827 17.4641 2.66859 16.9712C2.1139 14.8644 1.54766 12.7597 0.978713 10.6563C0.767563 9.87625 0.95495 9.24076 1.60673 8.74718C1.66512 8.70304 1.70314 8.59577 1.70518 8.51634C1.72419 7.67241 2.28363 6.97515 3.03929 6.86719C3.89611 6.74499 4.66806 7.23518 4.90977 8.07435C5.37009 9.67325 5.82294 11.2742 6.27036 12.8772C6.31381 13.0326 6.39393 13.0958 6.53243 13.1691C7.09323 13.4631 7.64249 13.7801 8.1904 14.0972C8.91483 14.5161 9.64265 14.9309 10.3555 15.3695C11.5511 16.1055 12.1669 17.1823 12.1771 18.5931C12.1826 19.3644 12.1778 20.135 12.1778 20.9063L12.1785 20.9056ZM5.46107 13.1216C5.46446 13.0808 5.47057 13.0625 5.4665 13.0476C5.02179 11.4718 4.57709 9.89594 4.12695 8.32216C4.093 8.20334 4.02986 8.08589 3.9545 7.98812C3.7386 7.70772 3.35432 7.60181 3.0454 7.72062C2.72291 7.84487 2.53756 8.12051 2.55046 8.45727C3.55257 8.65823 3.91648 9.00178 4.1867 10.0046C4.277 10.3386 4.36322 10.674 4.45284 11.008C4.65788 11.7725 4.86428 12.5363 5.07203 13.309C5.21257 13.2417 5.3341 13.1834 5.46242 13.1216H5.46107Z" fill="#14CEF4"/>
<path d="M11.2201 6.08006C11.4536 5.36175 11.6913 4.63189 11.9282 3.90203C12.0199 3.62095 12.1061 3.33851 12.2032 3.05879C12.3342 2.68197 12.6404 2.45385 12.9962 2.45657C13.3553 2.45928 13.6568 2.68401 13.7831 3.06625C14.0934 4.00455 14.4016 4.94352 14.6976 5.88589C14.7506 6.05494 14.8232 6.10518 14.997 6.10315C15.9706 6.09432 16.9449 6.09839 17.9185 6.09907C18.3476 6.09907 18.6531 6.298 18.7699 6.64833C18.8887 7.00478 18.7719 7.35375 18.4311 7.60496C17.6401 8.18613 16.8464 8.76459 16.048 9.33557C15.9075 9.43606 15.8742 9.52024 15.9312 9.6893C16.2497 10.6425 16.5599 11.5985 16.8587 12.5578C17.0046 13.027 16.7385 13.4737 16.2666 13.5959C15.9985 13.6652 15.7683 13.5776 15.5537 13.4214C14.7736 12.8538 13.9888 12.2923 13.2148 11.7159C13.0532 11.5958 12.95 11.5815 12.7796 11.7085C11.9934 12.2964 11.1963 12.8688 10.3992 13.4425C10.1046 13.655 9.78888 13.6849 9.47317 13.49C9.18802 13.3142 9.06174 13.048 9.08686 12.7167C9.09433 12.6176 9.13099 12.5191 9.16154 12.4234C9.45688 11.5075 9.7495 10.5903 10.0543 9.67708C10.1066 9.52024 10.0808 9.43877 9.94707 9.34304C9.13506 8.76119 8.32916 8.17119 7.52326 7.58187C7.2544 7.38566 7.13287 7.11952 7.18447 6.78752C7.23607 6.45619 7.42889 6.2335 7.74867 6.13641C7.85934 6.10315 7.98155 6.10043 8.099 6.10043C9.11537 6.09704 10.1311 6.09771 11.1474 6.09636C11.1637 6.09636 11.18 6.08889 11.2194 6.07938L11.2201 6.08006ZM12.9962 3.3161C12.9432 3.45664 12.9127 3.53065 12.8876 3.60669C12.5976 4.49814 12.3111 5.39094 12.0192 6.28171C11.8759 6.71759 11.6044 6.91108 11.1495 6.91176C10.1928 6.91312 9.23555 6.91176 8.27892 6.91244C8.20899 6.91244 8.13906 6.92059 8.03247 6.92738C8.1119 6.9912 8.15603 7.0299 8.2022 7.06384C8.96193 7.6165 9.72302 8.16712 10.4821 8.72045C10.9356 9.0511 11.0273 9.33014 10.8562 9.85971C10.5758 10.7281 10.2927 11.5951 10.0116 12.4628C9.98441 12.547 9.96269 12.6325 9.92467 12.7669C10.0469 12.6821 10.1236 12.6305 10.1976 12.5768C10.9444 12.035 11.6892 11.4912 12.4374 10.9508C12.84 10.6602 13.1442 10.6622 13.5516 10.9542C13.8612 11.1762 14.168 11.4023 14.4763 11.6256C14.9875 11.997 15.4994 12.3677 16.0623 12.7751C16.0202 12.6305 15.9971 12.5429 15.9693 12.4573C15.6889 11.5896 15.4057 10.7226 15.126 9.85428C14.9583 9.33354 15.0493 9.05313 15.4865 8.73471C16.2456 8.18138 17.006 7.6294 17.7651 7.07607C17.82 7.03601 17.8703 6.9878 17.9585 6.91244C16.8872 6.91244 15.8715 6.91244 14.8558 6.91244C14.369 6.91244 14.1103 6.7237 13.9569 6.25523C13.7675 5.67745 13.5821 5.09832 13.3934 4.52054C13.2691 4.14033 13.1428 3.76081 12.9962 3.31746V3.3161Z" fill="#14CEF4"/>
<path d="M20.0911 4.35516C20.0429 4.41627 19.9757 4.55002 19.8684 4.62606C19.6552 4.77611 19.423 4.90171 19.1915 5.02324C18.9634 5.14341 18.7332 5.07484 18.6219 4.87116C18.5166 4.67834 18.5743 4.44818 18.778 4.32054C19.0068 4.17728 19.2404 4.03946 19.4814 3.91657C19.774 3.76788 20.1047 3.97089 20.0911 4.35516Z" fill="#14CEF4"/>
<path d="M12.5882 0.789293C12.5882 0.646037 12.5786 0.502102 12.5902 0.360204C12.6078 0.142944 12.7837 -0.00845956 13.0003 0.000366638C13.225 0.00919284 13.375 0.13276 13.39 0.352736C13.411 0.654184 13.4056 0.959028 13.3927 1.26183C13.3832 1.47909 13.1985 1.62778 12.9833 1.62303C12.7681 1.61896 12.6031 1.46687 12.5895 1.24418C12.58 1.09346 12.5875 0.941375 12.5882 0.789293Z" fill="#14CEF4"/>
<path d="M6.32387 3.85712C6.36664 3.86935 6.42775 3.87546 6.47663 3.90261C6.72648 4.04112 6.97905 4.17623 7.22007 4.32899C7.41696 4.45391 7.4672 4.69629 7.35925 4.88164C7.24791 5.07242 7.02386 5.14168 6.81135 5.02965C6.56557 4.90133 6.32523 4.76215 6.091 4.61278C5.92941 4.50958 5.85201 4.35479 5.91379 4.15722C5.97354 3.96575 6.11136 3.87478 6.32319 3.85645L6.32387 3.85712Z" fill="#14CEF4"/>
<path d="M10.029 2.13569C9.89047 2.29457 9.80832 2.47041 9.68814 2.503C9.55371 2.53966 9.32084 2.49689 9.2414 2.39844C9.04247 2.15131 8.89243 1.8614 8.75053 1.57421C8.66906 1.40923 8.71794 1.21302 8.8836 1.13087C9.0092 1.0684 9.26109 1.02767 9.31541 1.0942C9.57137 1.40719 9.77912 1.75956 10.029 2.13502V2.13569Z" fill="#14CEF4"/>
<path d="M17.2734 1.44759C17.253 1.51073 17.2421 1.5793 17.2109 1.63633C17.0805 1.8726 16.9509 2.11091 16.8069 2.33903C16.6705 2.55562 16.4315 2.61061 16.2366 2.48908C16.0458 2.37027 15.9847 2.15368 16.1008 1.93507C16.2312 1.68929 16.3683 1.44487 16.5225 1.21335C16.6284 1.0538 16.8029 0.963504 16.9835 1.06602C17.1138 1.14003 17.2061 1.28057 17.3155 1.39124C17.3019 1.41025 17.2883 1.42926 17.2747 1.44759H17.2734Z" fill="#14CEF4"/>
</svg>
