<svg width="24" height="24" viewBox="0 0 24 24" fill="none" xmlns="http://www.w3.org/2000/svg">
<path d="M0.000976563 13.0767C0.188825 12.8294 0.477486 12.8156 0.745484 12.7555C1.02413 12.6935 1.30402 12.6372 1.61272 12.572C1.37227 12.2214 1.15061 11.9014 0.932706 11.5802C0.72983 11.2815 0.742979 11.1375 0.996575 10.882C1.32093 10.5552 1.64778 10.2296 1.97401 9.90396C2.28522 9.59338 2.40481 9.58148 2.76048 9.82569C3.06792 10.0361 3.37474 10.2477 3.71349 10.48C3.7974 10.0755 3.87317 9.70358 3.95269 9.3329C4.03096 8.96784 4.12175 8.88644 4.41542 8.85639C4.58699 8.13505 4.69281 7.41183 4.93263 6.73682C5.71847 4.5296 7.23754 3.00865 9.42222 2.16709C10.4322 1.77762 11.4854 1.62671 12.5681 1.73128C12.7428 1.74819 12.8805 1.70373 13.0176 1.59353C13.3038 1.36435 13.6019 1.14958 13.8968 0.931046C14.2443 0.673067 14.4084 0.698739 14.6745 1.05189C14.9375 1.40067 15.2023 1.74944 15.4628 2.10009C15.5786 2.25601 15.7152 2.35619 15.9199 2.30923C16.1253 2.26164 16.2029 2.11261 16.2292 1.9185C16.2881 1.48583 16.3545 1.0544 16.4146 0.622347C16.4766 0.178398 16.6325 0.0656889 17.0764 0.13081C17.7627 0.231622 18.4502 0.328051 19.1371 0.422602C19.5003 0.472695 19.6293 0.616086 19.5886 0.9874C19.5454 1.38251 19.4734 1.77386 19.4239 2.16834C19.3945 2.40253 19.3074 2.66426 19.5711 2.82707C19.8353 2.99049 20.0263 2.8039 20.2198 2.65925C20.5447 2.4163 20.8672 2.1696 21.1953 1.92977C21.474 1.72627 21.6675 1.75069 21.8772 2.0262C22.3268 2.61605 22.7714 3.20965 23.2128 3.80576C23.4151 4.07939 23.3825 4.27287 23.1057 4.48514C22.7463 4.76066 22.3838 5.03241 22.0187 5.29978C21.8459 5.42627 21.7395 5.57842 21.7989 5.79758C21.8572 6.01173 22.0356 6.06808 22.231 6.09438C22.6868 6.157 23.1427 6.21899 23.5973 6.28661C23.8834 6.32857 24.0312 6.50201 23.9936 6.78942C23.8922 7.56211 23.7808 8.33417 23.663 9.10435C23.6242 9.35606 23.4245 9.49006 23.1671 9.45562C22.6956 9.39175 22.2247 9.32538 21.7557 9.24962C21.561 9.21831 21.3932 9.24022 21.2824 9.4143C21.1653 9.59714 21.2154 9.76933 21.3393 9.93276C21.618 10.2997 21.8948 10.6672 22.1684 11.0379C22.3813 11.3266 22.3556 11.5201 22.0701 11.7367C21.4852 12.1801 20.8985 12.6209 20.3087 13.0573C20.0282 13.2652 19.8215 13.2289 19.6086 12.9477C19.34 12.5927 19.0726 12.237 18.8078 11.8801C18.685 11.7142 18.546 11.5833 18.3194 11.6434C18.0927 11.7042 18.0357 11.892 18.0063 12.0924C17.9412 12.5401 17.8811 12.9878 17.8141 13.4349C17.7652 13.7636 17.5949 13.8832 17.2593 13.8363C16.5411 13.7361 15.8229 13.6378 15.1053 13.5357C14.7371 13.4837 14.6137 13.3115 14.6676 12.9377C14.7308 12.4981 14.7922 12.058 14.8561 11.6184C14.8849 11.4205 14.8617 11.2396 14.6763 11.1237C14.4866 11.0054 14.3201 11.0786 14.1604 11.1995C13.8054 11.4681 13.4497 11.7349 13.0922 12.0003C12.781 12.2314 12.5887 12.2082 12.3564 11.9027C11.9175 11.3241 11.4817 10.7436 11.049 10.1607C10.8386 9.87703 10.8699 9.67979 11.1561 9.46126C11.5098 9.19138 11.8674 8.92652 12.2243 8.66102C12.3902 8.53767 12.5236 8.39303 12.4622 8.17011C12.4021 7.95158 12.2237 7.88771 12.0139 7.86204C11.5806 7.80882 11.1492 7.74056 10.7171 7.6792C10.3627 7.62911 10.2262 7.48133 10.2707 7.13006C10.364 6.38743 10.4704 5.64668 10.585 4.90718C10.637 4.57218 10.8017 4.46323 11.1485 4.50831C11.6125 4.56842 12.0753 4.63542 12.538 4.70618C12.7265 4.73498 12.8818 4.69115 12.9832 4.52585C13.0859 4.35803 13.0458 4.19774 12.9331 4.04808C12.6563 3.6799 12.3758 3.31422 12.1072 2.9404C12.0246 2.82519 11.9763 2.68493 11.9125 2.55594C11.9206 2.52839 11.9287 2.50021 11.9369 2.47266C11.4403 2.54279 10.9313 2.5647 10.4491 2.69056C7.87935 3.36056 6.19748 4.98107 5.4799 7.53581C4.72537 10.2208 5.81615 13.1425 8.09538 14.7448C8.39469 14.9552 8.70151 15.1675 8.95385 15.428C9.43975 15.9301 9.66705 16.5525 9.66392 17.2557C9.66204 17.7398 9.66079 18.2244 9.66454 18.7084C9.66893 19.2933 9.97888 19.602 10.5637 19.6038C11.5637 19.6063 12.5637 19.607 13.563 19.6038C14.1328 19.602 14.4334 19.2883 14.4422 18.7153C14.4522 18.076 14.4278 17.4317 14.4979 16.7986C14.5793 16.0685 14.9819 15.4931 15.573 15.056C15.9049 14.8106 16.2386 14.5676 16.5793 14.3171C16.7452 14.5019 16.9111 14.6866 17.104 14.9007C16.9374 15.0372 16.7809 15.1719 16.6168 15.2971C16.4553 15.4198 16.2881 15.535 16.1203 15.6496C15.5242 16.0566 15.2493 16.6321 15.2386 17.3415C15.2311 17.8412 15.2393 18.3415 15.2349 18.8412C15.2299 19.3596 15.0113 19.7785 14.5987 20.0841C14.4735 20.1768 14.4378 20.2694 14.439 20.4141C14.4453 21.0465 14.4453 21.6796 14.4409 22.312C14.434 23.3314 13.7684 23.9945 12.7509 23.9976C12.2669 23.9995 11.7822 24.002 11.2982 23.997C10.3583 23.9876 9.67268 23.3095 9.66141 22.3709C9.65327 21.7071 9.6658 21.0428 9.65327 20.379C9.65139 20.2832 9.58565 20.1605 9.50926 20.0991C9.09223 19.7641 8.87307 19.3377 8.86431 18.8055C8.85867 18.4567 8.86306 18.1079 8.81108 17.7272C8.65204 17.8925 8.4955 18.061 8.3327 18.2232C8.0791 18.4767 7.93571 18.488 7.63452 18.2839C7.31393 18.066 6.99521 17.8449 6.64519 17.6045C6.56504 17.9846 6.48927 18.3321 6.41852 18.6802C6.32397 19.1492 6.24131 19.2194 5.76418 19.2194C5.34214 19.2194 4.92074 19.22 4.4987 19.2194C4.15306 19.2188 4.04724 19.1355 3.96834 18.7905C3.89195 18.4561 3.82558 18.1198 3.75294 17.7855C3.74167 17.7347 3.72289 17.6853 3.70035 17.6114C3.36911 17.8393 3.05665 18.056 2.74232 18.2707C2.42047 18.4911 2.28209 18.4793 2.00783 18.2062C1.67534 17.8756 1.3441 17.5444 1.01348 17.2119C0.741101 16.9383 0.729204 16.8011 0.950239 16.4774C1.16439 16.1637 1.38041 15.8506 1.61522 15.5094C1.24328 15.4292 0.904529 15.3466 0.562018 15.2852C0.342235 15.2457 0.14562 15.18 0.000976562 15.0009V13.0792L0.000976563 13.0767ZM17.0627 12.9972C17.1127 12.6428 17.166 12.3203 17.2035 11.996C17.2718 11.4118 17.5842 11.0129 18.1033 10.8639C18.593 10.723 19.077 10.9096 19.4314 11.3767C19.6424 11.6553 19.8528 11.9352 20.0707 12.2245C20.2924 12.0592 20.4984 11.9071 20.7032 11.7524C20.9123 11.5946 21.1208 11.4355 21.335 11.2727C21.102 10.9609 20.8804 10.6691 20.6637 10.373C20.4633 10.0981 20.3556 9.79375 20.4176 9.45061C20.5485 8.7299 21.1584 8.32978 21.9117 8.45564C22.2398 8.51074 22.5698 8.55019 22.9179 8.59966C22.9573 8.31726 22.9924 8.06366 23.0287 7.81069C23.0651 7.55835 23.1026 7.30601 23.1421 7.03801C22.777 6.98541 22.4314 6.93344 22.0851 6.88585C21.7132 6.83451 21.3995 6.68172 21.1828 6.36426C20.8008 5.80384 20.9236 5.13761 21.4959 4.6899C21.7827 4.46573 22.0776 4.25096 22.3738 4.02805C22.0482 3.59474 21.7395 3.18523 21.4239 2.7657C21.0858 3.01491 20.7739 3.26037 20.4452 3.48266C20.0244 3.76694 19.5767 3.78134 19.1465 3.51209C18.7095 3.23783 18.5285 2.82519 18.5942 2.31111C18.6425 1.93604 18.6951 1.56222 18.747 1.17838C18.2154 1.10449 17.7095 1.03436 17.1866 0.961101C17.1284 1.34682 17.0739 1.69997 17.022 2.05313C16.9418 2.59413 16.6469 2.95668 16.1146 3.09193C15.5642 3.23219 15.141 3.00991 14.8116 2.5741C14.6012 2.29545 14.3914 2.01681 14.1735 1.7269C13.7452 2.04875 13.3314 2.36057 12.9112 2.67616C13.1598 3.00991 13.3984 3.30984 13.6144 3.62417C13.9131 4.0581 13.9337 4.52146 13.6526 4.96479C13.3652 5.41875 12.9287 5.5803 12.399 5.50203C12.0534 5.45069 11.7071 5.40435 11.3295 5.35175C11.2544 5.87585 11.1805 6.38743 11.1053 6.91215C11.471 6.96788 11.816 7.02611 12.1623 7.0712C12.7146 7.14258 13.084 7.435 13.2412 7.96849C13.3827 8.44688 13.1873 8.92965 12.7327 9.27842C12.4554 9.49131 12.1748 9.70045 11.8762 9.92587C12.1961 10.3523 12.5067 10.7656 12.8223 11.1857C13.1823 10.924 13.5061 10.666 13.8523 10.4431C14.3601 10.1162 15.0051 10.2302 15.3939 10.6904C15.682 11.031 15.6957 11.4268 15.6312 11.8413C15.5837 12.1462 15.5455 12.4531 15.501 12.7737C16.0307 12.8494 16.5304 12.9208 17.062 12.9966L17.0627 12.9972ZM7.32708 15.0999C6.63016 16.2946 5.45423 16.6233 4.50935 16.3447C3.47681 16.0403 2.77175 15.0999 2.76987 14.0479C2.76799 12.8864 3.45426 12.098 4.86876 11.6447C4.81304 11.4518 4.75042 11.2596 4.70346 11.0642C4.65462 10.8614 4.62143 10.6547 4.57259 10.4068C4.54191 10.4951 4.52187 10.5439 4.5081 10.5952C4.32463 11.2759 3.76484 11.4856 3.17813 11.0912C2.9333 10.9265 2.69097 10.7574 2.40043 10.5583C2.29211 10.6854 2.19317 10.8163 2.07921 10.9321C1.95961 11.053 1.82561 11.1594 1.6985 11.2721C1.9139 11.5865 2.10739 11.8507 2.28083 12.1275C2.59767 12.6328 2.36474 13.2113 1.78804 13.3566C1.50878 13.4274 1.2245 13.4762 0.944604 13.5451C0.890127 13.5582 0.805595 13.6146 0.803717 13.654C0.79182 13.9396 0.797455 14.2264 0.797455 14.5075C1.1193 14.5764 1.40984 14.6327 1.69788 14.7004C2.40732 14.8669 2.62835 15.4436 2.21884 16.0497C2.05416 16.2933 1.8876 16.5356 1.73983 16.7517C1.98654 17.0071 2.21258 17.242 2.44927 17.4874C2.70475 17.3133 2.95897 17.1349 3.2182 16.9639C3.76672 16.6033 4.34717 16.8293 4.50183 17.4642C4.57823 17.7792 4.64209 18.0973 4.71348 18.421C4.99087 18.421 5.24885 18.431 5.50495 18.4135C5.56568 18.4091 5.65335 18.3227 5.6715 18.2582C5.74163 18.0034 5.78359 17.741 5.8462 17.4837C6.00838 16.818 6.5857 16.5945 7.15614 16.9752C7.40785 17.1436 7.65581 17.3171 7.94197 17.5131C8.14359 17.2983 8.33771 17.086 8.53933 16.88C8.79167 16.6214 8.79418 16.6239 8.61322 16.3152C8.59756 16.2883 8.58379 16.2576 8.56187 16.2376C8.15862 15.865 7.75475 15.4937 7.32708 15.0999ZM3.60016 14.0166C3.58325 14.7755 4.07604 15.3923 4.84748 15.5782C5.52874 15.7423 6.272 15.3804 6.58883 14.7454C6.65771 14.6077 6.63392 14.5288 6.53373 14.4248C6.03343 13.9045 5.61703 13.3209 5.30833 12.6685C5.21315 12.4668 5.0873 12.4399 4.90446 12.4731C4.14805 12.6102 3.61707 13.2383 3.59953 14.0166H3.60016ZM10.4842 22.0277C10.3627 22.7923 10.7033 23.1986 11.4522 23.1993C11.8661 23.1993 12.28 23.1999 12.6933 23.1993C13.404 23.1974 13.7734 22.7246 13.6087 22.0277H10.4842ZM10.4698 20.4291V21.1811H13.6231V20.4291H10.4698Z" fill="#14CEF4"/>
<path d="M5.25051 0.000244141C5.52164 1.0522 5.79339 2.10478 6.07204 3.18679C5.80967 3.25566 5.56672 3.31953 5.29372 3.39154C5.02071 2.32393 4.75209 1.27448 4.48096 0.213766C4.7189 0.138626 4.93743 0.069122 5.15659 0.000244141C5.18789 0.000244141 5.2192 0.000244141 5.25051 0.000244141Z" fill="#14CEF4"/>
<path d="M12.448 16.817H11.6634C11.6358 16.6373 11.6202 16.4532 11.5795 16.2754C11.3967 15.4814 10.9421 14.8853 10.2019 14.5497C9.43552 14.2028 8.70541 13.8139 8.11055 13.2059C7.1901 12.2642 6.66224 11.144 6.5057 9.83214C6.264 7.81089 7.30969 5.62558 9.08549 4.54858C9.2245 4.76774 9.36351 4.98752 9.5094 5.21795C8.88825 5.62621 8.39045 6.12276 8.00348 6.73201C6.4794 9.13209 7.45308 12.4207 10.0441 13.5866C10.6465 13.8577 11.2245 14.1483 11.6578 14.6699C12.1712 15.2879 12.4304 15.9942 12.4486 16.817H12.448Z" fill="#14CEF4"/>
<path d="M4.32391 4.15665C4.16611 4.37831 4.02209 4.58056 3.85741 4.81162C2.92568 4.146 2.00335 3.48728 1.06348 2.81666C1.22127 2.59563 1.36967 2.38899 1.53122 2.16357C2.4617 2.82793 3.3809 3.48352 4.32391 4.15665Z" fill="#14CEF4"/>
<path d="M0.595426 7.6608C0.527174 7.3759 0.470193 7.1367 0.408203 6.87872C1.47831 6.61135 2.52526 6.34962 3.59224 6.0835C3.65861 6.34461 3.72123 6.59069 3.79073 6.86182C2.72313 7.12856 1.67055 7.39155 0.595426 7.6608Z" fill="#14CEF4"/>
<path d="M18.9595 17.5321C19.1404 17.3148 19.3001 17.1232 19.4742 16.9141C20.2713 17.5778 21.0596 18.2346 21.8674 18.9078C21.6952 19.115 21.5336 19.3098 21.3539 19.5258C20.5543 18.8602 19.7666 18.204 18.9595 17.5315V17.5321Z" fill="#14CEF4"/>
<path d="M22.3978 14.8266V15.6243C22.3346 15.6312 22.2757 15.6424 22.2162 15.6424C21.421 15.6437 20.6258 15.6387 19.8312 15.6468C19.6577 15.6487 19.6045 15.5992 19.6045 15.4233C19.6045 14.8259 19.5982 14.8259 20.2025 14.8259H22.3978V14.8266Z" fill="#14CEF4"/>
<path d="M18.0348 20.8025H17.2395C17.2326 20.7393 17.2207 20.6798 17.2207 20.6203C17.2195 19.8251 17.2245 19.0305 17.2164 18.2353C17.2145 18.0637 17.2608 18.0067 17.4387 18.0073C18.0348 18.0092 18.0348 18.0017 18.0348 18.6059C18.0348 19.3292 18.0348 20.053 18.0348 20.8019V20.8025Z" fill="#14CEF4"/>
<path d="M11.6487 17.6362H12.4451C12.4508 17.6838 12.4583 17.7208 12.4583 17.7577C12.4595 18.099 12.4583 18.4402 12.4583 18.8241C12.2097 18.8241 11.973 18.8284 11.7369 18.8191C11.7063 18.8178 11.653 18.7483 11.6524 18.7101C11.6455 18.3544 11.6487 17.9988 11.6487 17.6369V17.6362Z" fill="#14CEF4"/>
<path d="M20.3074 6.99129C20.2973 8.75519 18.8703 10.1728 17.1096 10.1672C15.3613 10.1616 13.9174 8.70761 13.9293 6.96437C13.9412 5.2061 15.3757 3.78659 17.1352 3.79348C18.8985 3.80037 20.3168 5.23053 20.3074 6.99067V6.99129ZM19.5034 6.98942C19.5065 5.67823 18.4389 4.59685 17.1365 4.59184C15.8303 4.58683 14.7564 5.65068 14.7427 6.96312C14.7295 8.26178 15.8009 9.3488 17.1096 9.36508C18.3969 9.38136 19.5002 8.28557 19.5027 6.98879L19.5034 6.98942Z" fill="#14CEF4"/>
</svg>
