<svg width="18" height="24" viewBox="0 0 18 24" fill="none" xmlns="http://www.w3.org/2000/svg">
<g clip-path="url(#clip0_275_2211)">
<path d="M0 3.98419C0.118727 3.59953 0.276872 3.2407 0.611683 2.98145C0.88713 2.77104 1.1906 2.63014 1.54203 2.62732C2.4738 2.61933 3.4051 2.6198 4.33639 2.61699H4.62799C4.63559 2.54513 4.64366 2.49299 4.64604 2.44086C4.67405 1.858 5.03166 1.50153 5.62435 1.49025C6.1534 1.47992 6.68244 1.48744 7.21102 1.48744H7.50356C7.50356 1.32775 7.50356 1.19014 7.50356 1.05299C7.51259 0.356477 7.87304 0 8.57163 0C8.88745 0 9.20326 0 9.51908 0C10.0619 0.00375734 10.4247 0.323131 10.4803 0.862309C10.5002 1.06051 10.4831 1.26247 10.4831 1.48838H11.848C12.0218 1.48838 12.1957 1.48462 12.3704 1.48838C12.966 1.50387 13.3236 1.84908 13.3544 2.43335C13.3568 2.48642 13.3639 2.53902 13.3711 2.61464H13.9433C14.772 2.61464 15.6012 2.60196 16.4295 2.62591C17.3104 2.65174 17.9753 3.34168 17.9967 4.21855C18.0057 4.58536 17.9991 4.95264 17.9991 5.31992V12.4932C18.005 12.579 18.0022 12.6652 17.9905 12.7505C17.9497 12.9431 17.8233 13.0497 17.6206 13.038C17.4306 13.0267 17.3171 12.9187 17.2938 12.7303C17.2868 12.6447 17.2851 12.5588 17.2886 12.473C17.2886 9.81699 17.2767 7.16055 17.2967 4.50458C17.3014 3.8184 16.9884 3.27969 16.0861 3.31679C15.1838 3.35389 14.2881 3.32477 13.3673 3.32477C13.3673 4.02176 13.0282 4.41112 12.3144 4.45198V5.05832H12.5837C13.6174 5.05832 14.6514 5.05832 15.6858 5.05832C16.2139 5.05832 16.4779 5.31382 16.4784 5.8281C16.4784 11.1479 16.4784 16.4676 16.4784 21.7874C16.4784 22.2796 16.2139 22.5469 15.7233 22.5473C13.7895 22.5501 11.8555 22.5501 9.92132 22.5473C9.63638 22.5473 9.48156 22.4229 9.47776 22.2049C9.47349 21.9781 9.63733 21.8433 9.93035 21.8433C11.7695 21.8433 13.6088 21.8433 15.4483 21.8433H15.7423V5.77691H12.2992C12.2992 5.94035 12.3039 6.0944 12.2992 6.24658C12.2802 6.78434 11.9796 7.08916 11.4372 7.09198C9.81115 7.09761 8.18506 7.09761 6.55897 7.09198C6.0285 7.08963 5.72978 6.78763 5.70413 6.26254C5.69701 6.10755 5.70413 5.95162 5.70413 5.78113H2.26437V21.8461H7.98417C8.06342 21.8407 8.14302 21.8437 8.22162 21.855C8.41159 21.8959 8.53316 22.0142 8.52177 22.2162C8.51037 22.4182 8.39307 22.5281 8.18933 22.545C8.12664 22.5506 8.06301 22.5497 7.99937 22.5497C6.12063 22.5497 4.24189 22.5497 2.36315 22.5497C1.76049 22.5497 1.52113 22.3106 1.52113 21.7104C1.52113 16.4376 1.52113 11.1646 1.52113 5.89151C1.52113 5.29503 1.76144 5.05973 2.36932 5.05973H5.67944V4.45761C4.99367 4.41065 4.62466 4.04712 4.64081 3.32477H4.10891C3.31154 3.32477 2.51417 3.32477 1.7168 3.32477C1.11224 3.32477 0.725186 3.70051 0.713788 4.30027C0.705715 4.72297 0.713788 5.14568 0.713788 5.56838C0.713788 11.0986 0.713788 16.6292 0.713788 22.1603C0.71118 22.2929 0.721999 22.4253 0.746082 22.5558C0.823967 22.9376 1.06427 23.1743 1.44515 23.2631C1.5607 23.2881 1.67879 23.2997 1.79706 23.2978C6.59585 23.2978 11.3951 23.2978 16.1949 23.2978C16.3756 23.3022 16.5555 23.2718 16.7244 23.2081C17.148 23.0278 17.2867 22.6708 17.2867 22.2378C17.2848 20.0344 17.2848 17.8315 17.2867 15.6291C17.2867 15.2465 17.2867 14.8637 17.2867 14.4808C17.2867 14.1483 17.414 13.975 17.649 13.9815C17.8765 13.9881 17.9972 14.1567 17.9972 14.4737C17.9972 16.2084 17.9972 17.9427 17.9972 19.6767C17.9972 20.5359 17.9972 21.3951 17.9972 22.2542C17.9972 23.1429 17.5731 23.7018 16.7092 23.9601C16.6802 23.9712 16.6521 23.9845 16.6251 24H1.37344C1.12743 23.8845 0.863859 23.7938 0.638278 23.6468C0.278772 23.412 0.121102 23.0334 0 22.6408L0 3.98419ZM9.0038 2.19945C7.89916 2.19945 6.79452 2.19945 5.68988 2.19945C5.43438 2.19945 5.3698 2.26098 5.366 2.51554C5.36188 2.81237 5.36188 3.10982 5.366 3.40791C5.3698 3.6634 5.42868 3.71883 5.69321 3.7207C6.1268 3.72352 6.56087 3.7207 6.99493 3.7207C8.754 3.7207 10.5134 3.7207 12.2731 3.7207C12.5799 3.7207 12.6307 3.66951 12.6331 3.36845C12.6354 3.08665 12.6364 2.80485 12.6331 2.52305C12.6297 2.25722 12.567 2.19898 12.2935 2.19851L9.0038 2.19945ZM6.44404 5.04611H11.5507V4.46184H6.44404V5.04611ZM6.45354 5.77644V6.36023H11.5555V5.77691L6.45354 5.77644ZM9.76555 1.47429C9.76555 1.29205 9.76555 1.12297 9.76555 0.953425C9.76555 0.783875 9.67485 0.706849 9.51813 0.704501C9.17144 0.699335 8.82381 0.689472 8.47855 0.712016C8.39354 0.717652 8.26294 0.829432 8.24679 0.910685C8.21118 1.08822 8.23587 1.2775 8.23587 1.47429H9.76555Z" fill="#14CEF4"/>
<path d="M5.00958 9.5131C5.41657 9.12186 5.8041 8.7466 6.19685 8.37556C6.62094 7.974 7.2502 8.01955 7.57979 8.4695C7.84478 8.83208 7.79682 9.29517 7.44159 9.65869C6.8717 10.2411 6.29373 10.8169 5.71909 11.3965C5.69155 11.4242 5.6621 11.45 5.63218 11.4754C5.27933 11.7741 4.80917 11.8041 4.47008 11.4895C4.07755 11.1289 3.7077 10.7449 3.36259 10.3397C3.06388 9.98699 3.13036 9.48351 3.46232 9.17541C3.62452 9.02427 3.83789 8.93839 4.0607 8.93457C4.28352 8.93075 4.49977 9.00925 4.66717 9.15474C4.79634 9.26699 4.90462 9.40225 5.00958 9.5131ZM4.08398 9.61971C4.02034 9.67044 3.93438 9.70613 3.92773 9.75263C3.91767 9.83309 3.93964 9.91427 3.989 9.97901C4.25875 10.274 4.53942 10.5595 4.81914 10.8455C5.00388 11.0334 5.07322 11.0334 5.26365 10.8427C5.81138 10.2913 6.35784 9.73932 6.90304 9.18668C6.93581 9.15333 6.9909 9.11764 6.99185 9.08194C6.99185 9.00445 6.99185 8.90723 6.94436 8.85603C6.91396 8.82175 6.80188 8.83396 6.73872 8.85885C6.67556 8.88374 6.63187 8.94809 6.582 8.99975C6.17311 9.41165 5.76706 9.82636 5.35484 10.2354C5.12783 10.4604 4.95354 10.4562 4.72606 10.2307C4.57029 10.0762 4.42117 9.91466 4.2654 9.76108C4.20805 9.71015 4.14746 9.66293 4.08398 9.61971Z" fill="#14CEF4"/>
<path d="M5.03787 17.7896C5.43442 17.4073 5.82764 17.0236 6.22514 16.6464C6.48824 16.397 6.80548 16.336 7.14504 16.4524C7.49695 16.5741 7.69356 16.8343 7.73725 17.2006C7.75329 17.3292 7.73909 17.4596 7.69576 17.5818C7.65243 17.704 7.58114 17.8147 7.48745 17.9051C6.88242 18.5213 6.27928 19.1399 5.65953 19.7415C5.28292 20.1074 4.76717 20.0952 4.38772 19.726C4.0556 19.4032 3.73409 19.0699 3.42318 18.7261C3.07697 18.3424 3.09739 17.8206 3.45072 17.482C3.80406 17.1433 4.35305 17.1532 4.72918 17.5054C4.83413 17.6031 4.93909 17.698 5.03787 17.7896ZM4.07903 17.9169C4.01729 17.9638 3.93656 17.9981 3.93371 18.0395C3.92468 18.1137 3.93371 18.217 3.9812 18.2677C4.27279 18.5852 4.57626 18.8924 4.87688 19.2023C4.97471 19.3033 5.08631 19.3165 5.18747 19.2146C5.78015 18.62 6.37474 18.0254 6.9546 17.4204C7.00209 17.3735 6.96173 17.2457 6.96268 17.1555C6.87814 17.1612 6.78933 17.1518 6.71145 17.1776C6.65826 17.195 6.62027 17.2598 6.5761 17.3044C6.16673 17.7168 5.76068 18.1315 5.34799 18.5401C5.13048 18.7548 4.95429 18.7505 4.7363 18.5364C4.57958 18.3823 4.43141 18.2198 4.27517 18.0667C4.21302 18.0127 4.14751 17.9627 4.07903 17.9169Z" fill="#14CEF4"/>
<path d="M4.99545 13.642C5.39818 13.2663 5.77953 12.9168 6.15423 12.5618C6.45248 12.2767 6.78824 12.1574 7.18716 12.3171C7.74803 12.5416 7.94701 13.2517 7.53384 13.6951C6.91646 14.3611 6.27059 15.004 5.61569 15.6348C5.28325 15.9528 4.77082 15.9345 4.43649 15.6151C4.07366 15.2689 3.72412 14.9078 3.39169 14.5348C3.07112 14.1732 3.11434 13.6589 3.46055 13.332C3.6193 13.1767 3.83217 13.0874 4.05545 13.0824C4.27872 13.0774 4.49544 13.1571 4.66112 13.3053C4.79029 13.4133 4.9019 13.5462 4.99545 13.642ZM7.04754 13.1338C7.00005 13.0751 6.96158 12.9896 6.92881 12.9929C6.83715 13 6.7227 13.0169 6.66238 13.0756C6.21787 13.5077 5.78713 13.9539 5.34641 14.3907C5.1327 14.6025 4.94654 14.5987 4.7333 14.3907C4.57706 14.2361 4.42746 14.075 4.27549 13.9163C4.18051 13.8186 4.06321 13.7284 3.96158 13.8609C3.91789 13.9172 3.95208 14.0891 4.00907 14.1563C4.27312 14.4559 4.56234 14.734 4.83589 15.0256C4.97408 15.1731 5.08949 15.1717 5.23101 15.0256C5.7857 14.4592 6.34705 13.8984 6.90364 13.3348C6.95699 13.2718 7.00512 13.2046 7.04754 13.1338Z" fill="#14CEF4"/>
<path d="M11.6276 10.2594C10.8065 10.2594 9.98535 10.2594 9.16471 10.2594C9.06973 10.2594 8.94958 10.2725 8.89069 10.2223C8.78858 10.1345 8.67651 10.0091 8.65798 9.88648C8.63376 9.72397 8.74917 9.59247 8.93296 9.56382C9.0188 9.55136 9.10551 9.54571 9.19226 9.54691C10.8028 9.54691 12.4131 9.54691 14.023 9.54691C14.3968 9.54691 14.5829 9.66714 14.581 9.90386C14.5791 10.1406 14.3935 10.2613 14.0192 10.2613L11.6276 10.2594Z" fill="#14CEF4"/>
<path d="M11.6048 14.5258C10.7917 14.5258 9.97867 14.5258 9.16562 14.5258C9.06494 14.5258 8.93197 14.5357 8.8707 14.4789C8.7724 14.3901 8.67694 14.2553 8.66127 14.1299C8.6418 13.974 8.76052 13.8556 8.93197 13.8293C9.01787 13.8176 9.10456 13.8124 9.19127 13.8138C10.8015 13.8138 12.4118 13.8138 14.022 13.8138C14.3991 13.8138 14.5824 13.9308 14.581 14.1684C14.5796 14.4061 14.3944 14.5263 14.0197 14.5263C13.2145 14.5266 12.4096 14.5265 11.6048 14.5258Z" fill="#14CEF4"/>
<path d="M11.6049 18.0789C12.4017 18.0789 13.199 18.0789 13.9965 18.0789C14.0829 18.0789 14.1698 18.0813 14.2563 18.0888C14.4519 18.1066 14.5597 18.2297 14.5754 18.4086C14.5911 18.5876 14.4847 18.7205 14.3038 18.7703C14.227 18.7871 14.1482 18.7939 14.0696 18.7905C12.4274 18.7905 10.7855 18.7905 9.14387 18.7905C9.04889 18.7905 8.92637 18.7994 8.87223 18.7473C8.77724 18.6533 8.67704 18.5237 8.66089 18.3988C8.64094 18.2428 8.75872 18.1231 8.93016 18.0963C9.02456 18.0834 9.11984 18.0779 9.21511 18.0799C10.0107 18.0786 10.8073 18.0783 11.6049 18.0789Z" fill="#14CEF4"/>
</g>
<defs>
<clipPath id="clip0_275_2211">
<rect width="18" height="24" fill="white"/>
</clipPath>
</defs>
</svg>
