<svg width="28" height="24" viewBox="0 0 28 24" fill="none" xmlns="http://www.w3.org/2000/svg">
<path d="M17.0626 9.31721C17.4527 8.84296 17.7877 8.42603 18.1324 8.01804C18.4563 7.63537 18.7973 7.26684 19.1182 6.88193C19.3907 6.55435 19.7361 6.43374 20.1508 6.44044C20.7174 6.45012 21.2839 6.44267 21.8505 6.44267C23.2814 6.44267 24.7116 6.44118 26.1426 6.44267C27.1931 6.44416 27.8758 7.13506 27.8765 8.19226C27.8765 9.6969 27.8244 11.2038 27.8936 12.7054C27.945 13.8289 27.0792 14.8422 25.7055 14.4312V14.761C25.7055 17.2871 25.7055 19.814 25.7055 22.3401C25.7055 23.133 25.1598 23.7941 24.428 23.8968C23.6455 24.0063 22.933 23.5298 22.732 22.7429C22.6843 22.5575 22.6799 22.3565 22.6799 22.1629C22.6762 20.4356 22.6776 18.7076 22.6776 16.9797C22.6776 16.9238 22.6776 16.868 22.6776 16.8121C22.6739 16.4272 22.5191 16.2136 22.2458 16.215C21.9726 16.2165 21.8155 16.4324 21.8155 16.8151C21.8148 18.6637 21.8177 20.5116 21.8133 22.3602C21.8118 23.0779 21.4492 23.6139 20.8387 23.8328C19.9617 24.147 18.9722 23.5335 18.8531 22.5969C18.8308 22.4227 18.8271 22.2448 18.8271 22.0691C18.8256 18.8089 18.8263 15.5487 18.8263 12.2885C18.8263 12.1895 18.8263 12.0897 18.8263 11.9431C18.1853 12.465 17.8272 13.2385 17.0134 13.4976C17.0134 13.8252 17.0134 14.149 17.0134 14.4736C17.0134 15.105 16.9368 15.1832 16.3151 15.1832C15.0331 15.1832 13.751 15.1832 12.469 15.1832C11.6329 15.1832 10.7968 15.1832 9.96075 15.1832H9.59818C9.69868 15.3336 9.76122 15.4303 9.82749 15.5249C11.2242 17.5269 12.6224 19.5281 14.019 21.5301C14.2216 21.8204 14.229 22.0073 14.0526 22.1756C13.7972 22.4183 13.553 22.387 13.3341 22.075C12.6797 21.1399 12.0282 20.2026 11.3753 19.266C10.7172 18.322 10.0575 17.3787 9.39865 16.4354C9.35175 16.3692 9.30112 16.3051 9.19912 16.1681C9.19912 16.3386 9.19912 16.4347 9.19912 16.53C9.19912 17.7376 9.20582 18.9451 9.19168 20.152C9.18944 20.3113 9.12467 20.5183 9.013 20.6128C8.91472 20.6962 8.67201 20.7148 8.56034 20.6478C8.43898 20.5749 8.33103 20.3731 8.3288 20.2257C8.31018 19.0926 8.31837 17.9594 8.31837 16.8263C8.31837 16.6335 8.31837 16.4406 8.31837 16.1585C8.20372 16.3133 8.13448 16.4027 8.06971 16.4942C6.78022 18.322 5.49074 20.1505 4.20126 21.9775C4.14766 22.0527 4.09703 22.1353 4.02705 22.1927C3.8573 22.3334 3.66075 22.3371 3.48579 22.2165C3.31679 22.0996 3.26169 21.9202 3.34657 21.7244C3.39422 21.6157 3.46122 21.5137 3.53046 21.4154C4.93087 19.4388 6.33278 17.4636 7.73394 15.4877C7.78605 15.4147 7.83221 15.338 7.91187 15.2167H7.57238C5.30536 15.2167 3.03909 15.2167 0.772069 15.2167C0.189866 15.2167 0.104993 15.134 0.104993 14.5645C0.104248 10.7511 0.104248 6.9333 0.104248 3.11622C0.104248 2.55412 0.205501 2.45361 0.769091 2.45361C5.98063 2.45361 11.1922 2.45361 16.4037 2.45361C16.9576 2.45361 17.0626 2.56008 17.0626 3.12441C17.0626 5.06534 17.0626 7.00701 17.0626 8.94793V9.31646V9.31721ZM16.1379 14.3314C16.1379 14.1751 16.1275 14.0366 16.1401 13.9004C16.1617 13.6681 16.1104 13.5147 15.8669 13.4031C15.6845 13.3197 15.5162 13.1492 15.4046 12.9772C14.6303 11.7882 13.8642 10.5933 13.1115 9.39017C12.775 8.85189 12.7653 8.28383 13.0906 7.73067C13.1688 7.5974 13.1711 7.51253 13.0772 7.38745C12.7489 6.94968 12.4318 6.50298 12.1146 6.05702C11.9091 5.76815 11.9352 5.5582 12.1861 5.38994C12.4459 5.21573 12.6246 5.26189 12.8323 5.56564C13.1413 6.01756 13.4428 6.47469 13.7562 6.92288C13.7994 6.98467 13.9014 7.05838 13.961 7.04721C14.7219 6.90352 15.2527 7.22812 15.6503 7.84532C15.788 8.05899 15.9339 8.26894 16.1193 8.54515V3.35446H0.99691V14.3314H16.1387H16.1379ZM24.7563 15.4594C24.7563 13.2489 24.7563 11.0378 24.7563 8.82732C24.7563 8.73426 24.7518 8.6412 24.7608 8.54888C24.7824 8.3218 24.9126 8.19821 25.1382 8.17886C25.4636 8.15057 25.6289 8.32999 25.6296 8.72979C25.6326 10.16 25.6281 11.5909 25.6341 13.0211C25.6356 13.4135 25.9095 13.6979 26.2602 13.7038C26.5937 13.7098 26.8692 13.4395 26.9087 13.065C26.9154 13.0003 26.9146 12.9355 26.9146 12.87C26.9146 11.2812 26.9161 9.69318 26.9146 8.10441C26.9146 7.50136 26.6913 7.27726 26.0949 7.27652C24.1346 7.27577 22.1744 7.28024 20.2141 7.27131C19.9498 7.26982 19.7584 7.34203 19.5909 7.5505C18.8032 8.5258 18.0051 9.49216 17.2107 10.4623C16.8757 10.8717 16.604 10.8591 16.3188 10.4176C15.8409 9.6768 15.3673 8.93304 14.8864 8.19449C14.6482 7.82968 14.3109 7.74704 13.9826 7.95699C13.6557 8.1662 13.585 8.51165 13.8143 8.87348C14.5491 10.0334 15.2877 11.1919 16.0307 12.3466C16.3091 12.7792 16.7484 12.8134 17.102 12.4374C17.644 11.8627 18.186 11.2887 18.7176 10.705C18.9097 10.4943 19.104 10.3014 19.407 10.4302C19.6952 10.5531 19.6602 10.8323 19.6602 11.0824C19.6602 14.7513 19.6602 18.421 19.6609 22.0899C19.6609 22.2292 19.6594 22.3699 19.6818 22.5069C19.7287 22.7942 19.9892 23.0243 20.2513 23.028C20.5618 23.0325 20.8067 22.8471 20.8759 22.5404C20.902 22.4242 20.905 22.3014 20.9057 22.1815C20.908 20.324 20.9013 18.4657 20.9124 16.6081C20.9169 15.8108 21.6413 15.2316 22.423 15.3693C23.0938 15.4869 23.5085 16.0148 23.51 16.7742C23.5137 18.5394 23.5107 20.3039 23.5122 22.0691C23.5122 22.1986 23.51 22.3304 23.5301 22.4585C23.574 22.7391 23.8428 22.9886 24.0937 22.9953C24.387 23.0034 24.655 22.8032 24.7243 22.5061C24.7533 22.3818 24.7556 22.2485 24.7556 22.1197C24.757 19.8996 24.757 17.6795 24.757 15.4594H24.7563Z" fill="#14CEF4"/>
<path d="M19.3951 2.84436C19.4018 1.32334 20.6473 0.0807585 22.1624 0.084481C23.6931 0.0882035 24.9305 1.33748 24.9252 2.87637C24.92 4.39665 23.6566 5.63179 22.117 5.62062C20.6257 5.6102 19.3876 4.34826 19.3943 2.84436H19.3951ZM24.049 2.81979C24.0534 1.77302 23.2159 0.925772 22.1706 0.919816C21.1327 0.91386 20.2728 1.76185 20.2624 2.80044C20.2527 3.82711 21.1149 4.69669 22.1505 4.70413C23.1883 4.71158 24.0445 3.8621 24.049 2.82054V2.81979Z" fill="#14CEF4"/>
<path d="M7.50747 12.8845C5.96635 12.8845 4.42597 12.886 2.88484 12.8837C2.51259 12.8837 2.33689 12.7326 2.35252 12.434C2.36443 12.2003 2.48355 12.0529 2.72626 12.0283C2.8089 12.0201 2.89303 12.0216 2.97642 12.0216C5.98347 12.0216 8.99127 12.0216 11.9983 12.0216C12.4398 12.0216 12.6431 12.1541 12.6527 12.4467C12.6632 12.749 12.4592 12.8845 11.9901 12.8845C10.4959 12.8845 9.0017 12.8845 7.50673 12.8845H7.50747Z" fill="#14CEF4"/>
<path d="M7.05781 10.469C5.66484 10.469 4.27187 10.4757 2.8789 10.4593C2.71957 10.4571 2.50888 10.3633 2.41433 10.2412C2.23043 10.0029 2.40167 9.66267 2.70096 9.60013C2.77243 9.58524 2.84912 9.58822 2.92282 9.58822C5.69015 9.58822 8.45822 9.58748 11.2255 9.58822C11.5918 9.58822 11.7608 9.71702 11.7757 9.99695C11.7921 10.2985 11.6261 10.466 11.2926 10.4675C10.5034 10.4712 9.71346 10.469 8.92428 10.469C8.30187 10.469 7.67947 10.469 7.05781 10.469Z" fill="#14CEF4"/>
<path d="M6.63721 7.17727C7.89022 7.17727 9.14247 7.17876 10.3955 7.17578C10.627 7.17578 10.8198 7.22194 10.8995 7.47284C10.9807 7.72671 10.8496 7.97166 10.589 8.02601C10.4722 8.05057 10.3493 8.04983 10.2295 8.04983C7.83512 8.05132 5.4408 8.05057 3.04721 8.05057C3.00105 8.05057 2.95415 8.05132 2.90799 8.05057C2.55063 8.04239 2.35408 7.88529 2.35184 7.60536C2.34887 7.31798 2.52531 7.17801 2.9065 7.17801C4.14982 7.17653 5.39315 7.17801 6.63721 7.17801V7.17727Z" fill="#14CEF4"/>
<path d="M5.52414 5.57743C4.63371 5.57743 3.74254 5.58041 2.85211 5.57594C2.51857 5.57445 2.35106 5.4263 2.35329 5.14934C2.35478 4.91631 2.46422 4.75997 2.7047 4.72349C2.80521 4.7086 2.90795 4.70785 3.00995 4.70785C4.70816 4.70711 6.40563 4.70785 8.10385 4.70785C8.1314 4.70785 8.15969 4.70785 8.18724 4.70785C8.58852 4.71455 8.76199 4.8508 8.75678 5.15381C8.75157 5.44342 8.58033 5.57594 8.19691 5.57669C7.30649 5.57892 6.41531 5.57669 5.52489 5.57669L5.52414 5.57743Z" fill="#14CEF4"/>
<path d="M22.5891 9.73127C22.5891 9.87943 22.5958 10.0276 22.5876 10.1743C22.5727 10.4445 22.4283 10.5845 22.1707 10.5889C21.9094 10.5934 21.7493 10.4661 21.7337 10.1951C21.7158 9.88241 21.7158 9.56674 21.7352 9.25404C21.7508 8.99272 21.9287 8.85201 22.1774 8.8602C22.4209 8.86839 22.575 9.02474 22.5884 9.28755C22.5958 9.43496 22.5899 9.58312 22.5891 9.73127Z" fill="#14CEF4"/>
<path d="M22.5889 12.3271C22.5889 12.4753 22.5956 12.6234 22.5874 12.7708C22.574 13.0284 22.4109 13.1975 22.1704 13.193C21.9292 13.1885 21.7513 13.0731 21.7379 12.8185C21.72 12.4872 21.7208 12.1537 21.7386 11.8223C21.7528 11.564 21.9315 11.4583 22.1771 11.462C22.4228 11.465 22.5695 11.6042 22.5859 11.8559C22.5963 12.0122 22.5881 12.17 22.5881 12.3271C22.5881 12.3271 22.5881 12.3271 22.5889 12.3271Z" fill="#14CEF4"/>
</svg>
