<svg width="26" height="26" viewBox="0 0 26 26" fill="none" xmlns="http://www.w3.org/2000/svg">
<path d="M0.895508 21.0844C1.06353 20.725 1.20312 20.3479 1.40588 20.0087C1.87961 19.2147 2.55864 18.6431 3.41389 18.2849C3.46189 18.2647 3.508 18.2388 3.58001 18.2034C2.96542 17.6488 2.64454 16.9793 2.70834 16.1645C2.75824 15.5265 3.03553 14.9902 3.51874 14.5633C4.42894 13.7592 5.82868 13.804 6.72056 14.6517C7.47349 15.3667 7.90301 16.9686 6.5936 18.1883C6.92143 18.3778 7.26883 18.5452 7.57834 18.7669C7.88216 18.9842 8.14745 19.2558 8.39569 19.4737C8.82395 19.0764 9.22694 18.6279 9.70383 18.2805C10.1738 17.9375 10.7189 17.6969 11.2387 17.4069C10.321 16.7134 9.86111 15.7514 9.98807 14.5538C10.0727 13.7535 10.4605 13.0978 11.0777 12.5774C12.2614 11.5787 14.0755 11.6949 15.1771 12.8035C16.2066 13.8388 16.5629 16.0685 14.7785 17.4158C15.2788 17.6956 15.8277 17.9413 16.3039 18.2868C16.7764 18.6298 17.1756 19.0738 17.6253 19.4907C18.0839 18.9425 18.6928 18.4984 19.4552 18.2091C18.7673 17.6065 18.4705 16.8669 18.5949 15.9876C18.6808 15.38 18.9827 14.8797 19.4666 14.495C20.4292 13.7301 21.8024 13.8362 22.6577 14.7332C23.4062 15.5183 23.691 17.0317 22.4353 18.2041C22.4922 18.2344 22.5421 18.266 22.5951 18.2893C23.7959 18.8123 24.6069 19.6967 25.0282 20.9328C25.3245 21.8032 24.7213 22.6408 23.8016 22.6427C22.1707 22.6458 20.5397 22.6433 18.9088 22.6433C18.816 22.6433 18.7238 22.6433 18.5861 22.6433C18.5861 22.949 18.6056 23.232 18.5823 23.5112C18.5084 24.3986 17.7485 25.1004 16.8572 25.1017C14.289 25.1061 11.7201 25.1061 9.15177 25.1017C8.24978 25.1004 7.4937 24.398 7.41853 23.4929C7.39579 23.2206 7.41474 22.9452 7.41474 22.6427H7.09955C5.50022 22.6427 3.90089 22.6427 2.30092 22.6427C1.58464 22.6427 1.19175 22.3704 0.939723 21.7028C0.932143 21.6832 0.911299 21.6687 0.896771 21.6522C0.896771 21.4634 0.896771 21.2739 0.896771 21.085L0.895508 21.0844ZM12.9928 24.3475C14.2447 24.3475 15.4973 24.35 16.7492 24.3462C17.3158 24.3449 17.787 23.9849 17.8142 23.4783C17.8407 22.9781 17.8559 22.4639 17.775 21.9725C17.4403 19.9373 15.9098 18.4321 13.8159 18.0266C11.9304 17.6615 9.8908 18.5868 8.85111 20.2702C8.29336 21.1741 8.13293 22.1563 8.15503 23.2055C8.16956 23.8908 8.64709 24.3607 9.30716 24.3519C10.5357 24.3348 11.7643 24.3468 12.9928 24.3468V24.3475ZM13.0029 12.6601C11.7485 12.6588 10.7315 13.6669 10.7284 14.9151C10.7252 16.1702 11.7611 17.2073 13.008 17.1979C14.2555 17.1884 15.2718 16.1657 15.2712 14.922C15.2705 13.672 14.2574 12.662 13.0036 12.6607L13.0029 12.6601ZM7.39453 21.8752C7.57139 21.3724 7.72362 20.8949 7.91059 20.4313C7.97122 20.2803 7.95543 20.1925 7.86195 20.0788C6.96817 18.9962 5.81857 18.5382 4.44347 18.7801C3.08543 19.0195 2.17902 19.8426 1.70402 21.1393C1.61938 21.3712 1.6358 21.5948 1.83477 21.7362C1.96426 21.8278 2.15185 21.8765 2.31419 21.8771C3.9451 21.8872 5.57602 21.8834 7.20693 21.8828C7.28399 21.8828 7.36105 21.8765 7.39453 21.8752ZM18.6126 21.872C18.6126 21.872 18.6669 21.8822 18.7206 21.8822C20.3989 21.8828 22.0765 21.8853 23.7548 21.8809C24.2178 21.8796 24.4459 21.555 24.2829 21.1185C23.751 19.6903 22.7158 18.8679 21.2055 18.7347C19.9334 18.6222 18.8842 19.1187 18.0991 20.1375C18.0605 20.1874 18.0384 20.2835 18.0586 20.3409C18.233 20.8431 18.4193 21.3408 18.6132 21.872H18.6126ZM19.3314 16.3432C19.3301 17.2288 20.0521 17.9571 20.9307 17.9552C21.8113 17.9539 22.5408 17.2206 22.5339 16.3432C22.5269 15.4665 21.8119 14.7496 20.9421 14.7471C20.0527 14.7445 19.3333 15.4577 19.3314 16.3432ZM6.6675 16.3571C6.6694 15.4665 5.95753 14.7483 5.07133 14.7464C4.18829 14.7445 3.46316 15.4697 3.46505 16.3514C3.46758 17.2326 4.20092 17.9621 5.07701 17.9539C5.95121 17.9457 6.66561 17.2282 6.6675 16.3565V16.3571Z" fill="#14CEF4"/>
<path d="M0.895508 6.56842C1.05468 6.28671 1.2985 6.19133 1.61811 6.18754C2.15312 6.18122 2.68749 6.13322 3.22313 6.113C3.36209 6.10795 3.42968 6.05994 3.47705 5.9273C3.66907 5.39545 3.87752 4.86929 4.0727 4.33807C4.16807 4.0791 4.32409 3.90034 4.61339 3.88455C4.86099 3.87129 5.04796 4.03172 5.1686 4.34565C5.3682 4.86676 5.57033 5.38661 5.76046 5.91088C5.80973 6.04668 5.87163 6.10795 6.02449 6.113C6.58349 6.13132 7.14124 6.16796 7.70025 6.19259C8.04071 6.20775 8.23146 6.31892 8.31863 6.56842C8.40832 6.82424 8.33568 7.01373 8.05839 7.23797C7.6175 7.59485 7.17851 7.95362 6.7313 8.30229C6.61887 8.39009 6.59992 8.47031 6.63718 8.60296C6.79825 9.16954 6.94353 9.74119 7.10271 10.3084C7.17282 10.5579 7.11471 10.76 6.917 10.9198C6.72814 11.0721 6.49822 11.0714 6.25883 10.9173C5.77562 10.6059 5.29114 10.2964 4.81804 9.97111C4.66834 9.86815 4.56538 9.87762 4.42263 9.9749C3.96089 10.2895 3.48842 10.5889 3.0229 10.8977C2.79993 11.0455 2.57506 11.0898 2.34198 10.9306C2.12659 10.7834 2.071 10.5724 2.15564 10.256C2.30408 9.70202 2.44683 9.14681 2.60854 8.59664C2.65022 8.45515 2.61485 8.38314 2.51 8.3004C2.08364 7.96373 1.65791 7.62517 1.24102 7.2765C1.11153 7.16912 1.00984 7.027 0.895508 6.8994C0.895508 6.78887 0.895508 6.67896 0.895508 6.56842ZM7.20314 6.94488C6.6555 6.91456 6.17734 6.88361 5.69856 6.86277C5.42 6.85014 5.24756 6.7118 5.15281 6.45662C5.01069 6.07384 4.86478 5.69296 4.7195 5.31144C4.69424 5.24512 4.66013 5.18195 4.61402 5.08279C4.43463 5.55399 4.26472 5.97594 4.11249 6.40482C4.00827 6.69854 3.82698 6.85582 3.50611 6.86593C3.03869 6.88109 2.5719 6.91519 2.04447 6.94488C2.42725 7.25439 2.75066 7.53926 3.09806 7.7894C3.4202 8.02121 3.50737 8.29155 3.38546 8.66739C3.25155 9.08111 3.15302 9.50621 3.02416 9.97995C3.46821 9.69002 3.86615 9.43799 4.25524 9.17333C4.49969 9.00784 4.73024 8.99837 4.97595 9.16512C5.26209 9.35967 5.55328 9.54601 5.84383 9.73424C5.94932 9.80309 6.05733 9.86815 6.21524 9.96605C6.0826 9.46958 5.97838 9.03564 5.84889 8.60991C5.74846 8.27955 5.82552 8.03511 6.10218 7.82666C6.45906 7.55821 6.80015 7.26955 7.2044 6.94425L7.20314 6.94488Z" fill="#14CEF4"/>
<path d="M13.1414 0.89502C13.3315 1.01819 13.389 1.19253 13.3808 1.41676C13.3669 1.81722 13.3789 2.21895 13.3757 2.61942C13.3738 2.8765 13.2241 3.03757 12.9986 3.03757C12.7731 3.03757 12.6247 2.8765 12.6222 2.61942C12.619 2.21832 12.6316 1.81722 12.6171 1.41676C12.6095 1.19316 12.6658 1.01882 12.8565 0.895651H13.1401L13.1414 0.89502Z" fill="#14CEF4"/>
<path d="M10.4946 10.4122C10.566 10.1425 10.6582 9.79387 10.751 9.4452C10.8243 9.17233 10.8881 8.89566 10.9772 8.62784C11.0283 8.47562 10.9999 8.38782 10.8736 8.28928C10.4258 7.94188 9.98739 7.5812 9.54587 7.22559C9.29952 7.02788 9.21994 6.82702 9.29384 6.59457C9.37658 6.33496 9.5686 6.21053 9.89517 6.19537C10.4618 6.16884 11.0277 6.13347 11.5943 6.11515C11.7472 6.1101 11.8122 6.0482 11.8615 5.91302C12.0586 5.37486 12.2645 4.83922 12.4704 4.30422C12.5784 4.02377 12.7685 3.87217 13.0067 3.8867C13.2701 3.90249 13.4362 4.04777 13.5278 4.29601C13.7286 4.84175 13.9428 5.38244 14.1424 5.92818C14.1897 6.0583 14.2567 6.10883 14.3969 6.11389C14.9559 6.1341 15.5137 6.16947 16.0727 6.19411C16.4239 6.20927 16.6159 6.32423 16.7024 6.58762C16.7827 6.83144 16.6974 7.03104 16.4226 7.25212C15.9925 7.597 15.5661 7.94693 15.1315 8.28612C15.0096 8.38087 14.9711 8.46172 15.0185 8.62153C15.1789 9.16348 15.3179 9.71238 15.4638 10.2588C15.5484 10.5752 15.4909 10.7824 15.2806 10.934C15.0747 11.0824 14.8599 11.0679 14.5807 10.886C14.1064 10.5758 13.6301 10.2689 13.1595 9.95241C13.0446 9.87535 12.9618 9.8703 12.8443 9.94988C12.3485 10.284 11.8457 10.6081 11.3435 10.9334C11.1572 11.0546 10.9582 11.073 10.7631 10.9612C10.5881 10.8607 10.4883 10.7066 10.4933 10.4129L10.4946 10.4122ZM11.4054 9.97831C11.8602 9.68207 12.2563 9.43004 12.646 9.1679C12.8829 9.00873 13.109 9.00241 13.3465 9.16285C13.62 9.34792 13.8985 9.52542 14.1758 9.70544C14.2952 9.7825 14.4159 9.85766 14.5927 9.96946C14.4569 9.45909 14.3489 9.01884 14.2201 8.58426C14.1272 8.27033 14.2049 8.03599 14.4651 7.84081C14.7424 7.63363 15.0077 7.41003 15.2774 7.19274C15.364 7.12326 15.448 7.04999 15.573 6.94514C15.0311 6.91482 14.5523 6.8845 14.0729 6.86302C13.7931 6.85039 13.6225 6.707 13.5278 6.45371C13.4513 6.2478 13.3718 6.04251 13.2934 5.83723C13.2031 5.60036 13.1121 5.36412 12.9985 5.06598C12.8178 5.54098 12.6517 5.94524 12.5115 6.35897C12.399 6.69058 12.2026 6.86555 11.8406 6.87186C11.3884 6.88008 10.9361 6.91734 10.4207 6.94514C10.7435 7.20474 11.0151 7.42645 11.2898 7.64437C11.9006 8.12947 11.9038 8.13832 11.6954 8.89503C11.6025 9.23233 11.5141 9.57089 11.4054 9.97768V9.97831Z" fill="#14CEF4"/>
<path d="M25.1008 6.86686C25.0464 6.9395 24.9605 7.11004 24.8273 7.22374C24.4085 7.58188 23.9771 7.92613 23.5381 8.25901C23.3808 8.37839 23.3511 8.4883 23.4067 8.67274C23.564 9.19953 23.7023 9.73201 23.8457 10.2632C23.9297 10.5753 23.869 10.7919 23.6524 10.9359C23.418 11.0913 23.1944 11.0446 22.9715 10.8961C22.5066 10.586 22.0328 10.2891 21.5724 9.97204C21.4233 9.86971 21.3197 9.87982 21.1763 9.97772C20.7279 10.2841 20.2674 10.5727 19.8164 10.8753C19.5827 11.0326 19.3477 11.1046 19.0951 10.9321C18.8759 10.7831 18.8247 10.5601 18.9188 10.2121C19.0622 9.68148 19.2005 9.149 19.3559 8.62157C19.402 8.46619 19.3679 8.38029 19.2448 8.28364C18.7975 7.93497 18.3579 7.5762 17.917 7.21995C17.6675 7.01845 17.5968 6.82959 17.6757 6.58704C17.7572 6.33501 17.9436 6.21121 18.2569 6.19605C18.831 6.16826 19.4052 6.13415 19.98 6.11393C20.119 6.10888 20.1859 6.06024 20.2333 5.93012C20.4304 5.39133 20.6445 4.85885 20.8397 4.32005C20.9325 4.06297 21.0917 3.90317 21.3671 3.88674C21.6122 3.87159 21.8036 4.02887 21.9166 4.32384C22.1187 4.85253 22.3215 5.38059 22.5142 5.91244C22.5634 6.04887 22.6291 6.11014 22.7813 6.1152C23.3561 6.13415 23.9297 6.16889 24.5045 6.19731C24.8772 6.21563 25.1064 6.42976 25.1001 6.86749L25.1008 6.86686ZM21.3785 5.06729C21.2256 5.46523 21.0557 5.80506 20.9647 6.1651C20.827 6.714 20.4935 6.92876 19.9535 6.89086C19.8284 6.88202 19.7014 6.89212 19.5757 6.89907C19.337 6.91234 19.0988 6.92939 18.8026 6.94897C19.205 7.27238 19.5543 7.56293 19.9143 7.8396C20.172 8.0373 20.2573 8.2767 20.1562 8.58557C20.1171 8.70495 20.088 8.82749 20.0558 8.94877C19.9705 9.27028 19.8859 9.59242 19.7842 9.97772C20.1764 9.72127 20.5276 9.5242 20.8416 9.27912C21.2199 8.98414 21.5515 8.99235 21.9261 9.2848C22.24 9.52988 22.5906 9.72822 22.974 9.97962C22.8641 9.56968 22.8009 9.20332 22.6664 8.86476C22.4567 8.33796 22.5824 7.96719 23.0549 7.66273C23.3599 7.46629 23.6271 7.21174 23.96 6.94455C23.4282 6.91549 22.9664 6.88075 22.5034 6.86749C22.1724 6.85802 21.988 6.69694 21.8819 6.39249C21.7328 5.96487 21.5616 5.54482 21.3785 5.06666V5.06729Z" fill="#14CEF4"/>
<path d="M9.21124 2.8291C9.35146 2.90553 9.46579 2.94406 9.54917 3.01733C10.04 3.44938 10.5251 3.88711 11.0076 4.328C11.2041 4.50739 11.223 4.74805 11.067 4.91101C10.9148 5.07019 10.6918 5.06892 10.4985 4.89585C9.99953 4.44991 9.50369 3.99954 9.00658 3.55171C8.86699 3.42601 8.81835 3.26115 8.90678 3.10513C8.96805 2.99649 9.09944 2.92701 9.21124 2.82973V2.8291Z" fill="#14CEF4"/>
<path d="M15.1551 5.05772C15.0635 4.98003 14.9081 4.90991 14.8734 4.8019C14.8348 4.68189 14.8569 4.47471 14.9391 4.39575C15.4557 3.89991 15.992 3.42428 16.5321 2.9537C16.6868 2.81853 16.9161 2.85706 17.0393 3.01245C17.1681 3.17478 17.182 3.36364 17.0317 3.5045C16.5024 3.99845 15.9604 4.47976 15.4185 4.95981C15.3648 5.00782 15.2751 5.0154 15.1557 5.05835L15.1551 5.05772Z" fill="#14CEF4"/>
</svg>
