<svg width="20" height="18" viewBox="0 0 20 18" fill="none" xmlns="http://www.w3.org/2000/svg">
<path opacity="0.89772" d="M19.6876 0.657227V3.66235C18.106 3.92595 16.9988 4.47953 16.3662 5.32307C15.7335 6.16662 15.4172 7.66918 15.4172 9.83076H19.4504V17.3436H11.7003V11.017C11.7003 7.74826 12.3066 5.21763 13.5192 3.4251C14.7318 1.57985 16.788 0.657227 19.6876 0.657227ZM8.2998 0.657227V3.66235C6.71815 3.92595 5.611 4.47953 4.97835 5.32307C4.34569 6.16662 4.02936 7.66918 4.02936 9.83076H8.06255V17.3436H0.3125V11.017C0.3125 7.74826 0.918796 5.21763 2.13139 3.4251C3.34398 1.57985 5.40012 0.657227 8.2998 0.657227Z" fill="#14CEF4"/>
</svg>
