<svg width="24" height="24" viewBox="0 0 24 24" fill="none" xmlns="http://www.w3.org/2000/svg">
<path d="M14.7605 0C15.0689 0.0737157 15.3816 0.134285 15.6854 0.223964C16.3789 0.428678 16.9879 0.789275 17.5006 1.2973C18.7716 2.5561 20.0342 3.82289 21.2981 5.08826C21.5174 5.308 21.5367 5.48642 21.3911 5.76438C21.3404 5.86063 21.2888 5.95642 21.2423 6.04422C21.3906 6.33157 21.5991 6.41421 21.8926 6.28274C22.2245 6.13343 22.4837 6.23766 22.7218 6.50295C23.003 6.81659 23.3171 7.10018 23.6115 7.40256C24.1336 7.93876 24.1322 8.64352 23.6059 9.17455C22.8795 9.90655 22.1508 10.6357 21.4193 11.3621C20.8807 11.8969 20.1727 11.8936 19.6313 11.3583C19.3036 11.0344 18.9843 10.7015 18.6514 10.3831C18.4655 10.2052 18.4167 10.0066 18.4913 9.76757C18.5077 9.71545 18.5096 9.6577 18.5322 9.60934C18.6486 9.3619 18.5791 9.17972 18.3383 9.0459C17.3081 9.68587 16.5681 10.6484 15.6164 11.5241C15.7183 11.587 15.8113 11.6236 15.8761 11.6879C18.2861 14.0938 20.6962 16.5006 23.1007 18.9121C24.166 19.9807 24.2956 21.5884 23.426 22.7814C22.3729 24.2271 20.2666 24.4163 18.9801 23.1763C18.5866 22.7969 18.203 22.4068 17.8185 22.018C17.5879 21.7846 17.5739 21.5151 17.7725 21.3128C17.964 21.1174 18.2542 21.1268 18.48 21.3475C18.8768 21.7349 19.2548 22.1424 19.6637 22.5162C20.7986 23.5533 22.5875 23.0242 22.9795 21.5386C23.1598 20.8554 23.0138 20.23 22.5433 19.7079C22.1306 19.2501 21.6808 18.8257 21.2446 18.389C19.7595 16.9025 18.2735 15.4169 16.7879 13.9313C16.7339 13.8773 16.6761 13.8266 16.6296 13.783C15.6751 14.737 14.7313 15.6808 13.7721 16.6391C14.2449 17.1105 14.7252 17.5899 15.2051 18.0693C15.2934 18.1575 15.3859 18.2425 15.4666 18.3374C15.6474 18.5491 15.6404 18.8078 15.4563 18.991C15.2788 19.1675 15.0018 19.1717 14.8004 18.9975C14.7473 18.9515 14.6994 18.8994 14.6501 18.8496C13.6561 17.8552 12.6621 16.8612 11.6677 15.8672C11.6081 15.8076 11.5451 15.7517 11.494 15.7033C11.2484 15.9503 11.0136 16.186 10.7662 16.4339C10.8178 16.4884 10.8808 16.5546 10.9432 16.6213C11.2 16.8936 11.2024 17.1297 10.9385 17.395C10.2779 18.0599 9.61351 18.721 8.95053 19.3839C7.6969 20.6376 6.45124 21.8997 5.18681 23.143C3.63173 24.6718 1.01412 24.0694 0.312649 22.0166C-0.0761196 20.8785 0.14221 19.8253 0.986889 18.9661C2.8927 17.0279 4.82527 15.1159 6.74798 13.1946C6.99824 12.9444 7.25085 12.9425 7.50533 13.1853C7.57247 13.2491 7.6213 13.3322 7.66591 13.3904C8.23028 12.8223 8.76131 12.288 9.31817 11.7278C8.96509 11.3827 8.58242 11.0156 8.20774 10.6409C6.4226 8.85809 4.64826 7.06403 2.84622 5.29861C2.53022 4.98919 2.10577 4.78401 1.71653 4.55723C1.47003 4.41355 1.29819 4.22856 1.1639 3.97783C0.786401 3.27213 0.388712 2.57535 -0.00146484 1.87482C-0.00146484 1.76542 -0.00146484 1.65602 -0.00146484 1.54662C0.514076 1.03108 1.02962 0.51554 1.54516 0C1.65456 0 1.76396 0 1.87336 0C2.57342 0.390177 3.26973 0.787866 3.9759 1.16584C4.22615 1.29965 4.42242 1.46445 4.55341 1.71894C4.92105 2.43403 5.43941 3.02704 6.01177 3.59047C7.87532 5.42679 9.71727 7.28565 11.5653 9.13746C11.6311 9.2032 11.6771 9.28771 11.7329 9.36424C11.8043 9.30931 11.8301 9.29381 11.8513 9.27269C12.7354 8.38951 13.6223 7.50914 14.5003 6.61986C14.8825 6.23297 14.8764 5.69207 14.4971 5.29767C14.1721 4.96008 13.8383 4.63094 13.504 4.30274C12.8917 3.70222 12.0992 3.6778 11.4433 4.23513C11.1737 4.46426 10.9535 4.46051 10.7033 4.214C10.4023 3.9182 10.1056 3.61911 9.80836 3.31955C9.52289 3.03173 9.52007 2.79744 9.80272 2.5115C10.1816 2.12837 10.5629 1.74758 10.9456 1.36773C11.4578 0.859704 12.0536 0.478448 12.7382 0.253545C13.0753 0.143675 13.4298 0.0831062 13.7763 0C14.1045 0 14.4323 0 14.7605 0ZM17.2607 8.65056C17.5213 8.45806 17.7945 8.25099 18.0734 8.05145C18.3331 7.86551 18.5308 7.88336 18.7622 8.10591C18.8975 8.23597 19.0148 8.3881 19.1632 8.49938C19.5802 8.81255 19.7144 9.18864 19.498 9.6807C19.4698 9.74456 19.4947 9.86992 19.5431 9.92251C19.7924 10.1915 20.0567 10.4465 20.3178 10.7052C20.4624 10.8484 20.6079 10.8357 20.7474 10.6963C21.4766 9.96758 22.2072 9.23982 22.933 8.50783C23.1035 8.33645 23.096 8.22893 22.9213 8.04816C22.7532 7.87397 22.5579 7.72137 22.4137 7.5298C22.1987 7.24386 21.9574 7.18094 21.6334 7.32039C21.385 7.42698 21.1643 7.36359 20.9798 7.15747C20.8394 7.00065 20.6831 6.85791 20.5342 6.7086C20.076 6.25081 20.0732 6.2325 20.3685 5.66531C20.3863 5.63104 20.4004 5.59488 20.4164 5.5592C20.4018 5.53807 20.391 5.51694 20.3746 5.50051C19.1928 4.31871 18.0288 3.11766 16.8217 1.96262C15.9066 1.08649 14.7896 0.798665 13.5355 1.01653C12.3147 1.22875 11.5419 2.07484 10.7765 2.89322C10.8948 3.03173 11.0052 3.16085 11.1118 3.28575C12.2856 2.64625 13.3261 2.79415 14.2567 3.72194C14.5553 4.01962 14.8764 4.29946 15.1436 4.62296C15.3474 4.86946 15.5281 5.15587 15.6394 5.45449C15.823 5.94703 15.7178 6.43815 15.4896 6.88279C16.0779 7.47017 16.6569 8.04863 17.2602 8.65103L17.2607 8.65056ZM7.08182 14.1281C7.0405 14.1914 7.00341 14.2746 6.94378 14.3347C6.25639 15.0272 5.56571 15.7169 4.87598 16.4071C3.81626 17.4673 2.7509 18.5214 1.69869 19.5891C0.786871 20.5141 0.910356 21.9612 1.94895 22.6908C2.78095 23.2754 3.83833 23.1613 4.60882 22.3927C6.36109 20.6451 8.10914 18.8933 9.8586 17.1429C9.90133 17.1002 9.93842 17.0513 9.96847 17.0166C9.01627 16.0635 8.07393 15.1206 7.08182 14.1281ZM3.76602 4.78307C6.43763 7.45609 9.11768 10.1376 11.7644 12.7862C12.1011 12.4476 12.4565 12.0908 12.8035 11.7424C10.1483 9.08675 7.47152 6.40998 4.80602 3.74354C4.45857 4.09099 4.10126 4.4483 3.76649 4.78307H3.76602ZM15.9362 13.0805C15.4962 12.6411 15.0619 12.2035 14.6234 11.7706C14.4698 11.6189 14.32 11.649 14.175 11.7945C13.3805 12.5908 12.5833 13.3843 11.7907 14.1821C11.6142 14.36 11.6198 14.475 11.802 14.6633C12.0142 14.8821 12.2325 15.0943 12.4471 15.3108C12.6589 15.5244 12.8687 15.7395 13.0734 15.9475C14.0397 14.9798 14.9778 14.0407 15.9366 13.081L15.9362 13.0805ZM14.8356 7.66033C14.0548 8.44068 13.2655 9.22855 12.4884 10.0051C12.8363 10.3507 13.1894 10.7015 13.5552 11.0644C13.9332 10.7343 14.3862 10.6291 14.8962 10.8221C14.9295 10.8348 14.9929 10.8156 15.0196 10.7883C15.5159 10.2944 16.0089 9.79762 16.4925 9.31119C15.9343 8.7548 15.3882 8.21062 14.8356 7.65986V7.66033ZM4.18578 2.94252C4.06652 2.74438 3.94679 2.56221 3.84443 2.37064C3.73456 2.16452 3.58196 2.02037 3.37068 1.91238C2.90021 1.67152 2.43914 1.4114 1.97994 1.1494C1.8527 1.07662 1.76724 1.06583 1.66207 1.18556C1.5137 1.35505 1.3503 1.51282 1.18409 1.66541C1.08314 1.75838 1.06154 1.83397 1.13526 1.96309C1.43247 2.48286 1.71466 3.01155 2.00764 3.53366C2.04755 3.60456 2.10718 3.67358 2.17432 3.71818C2.38843 3.85951 2.60582 3.99755 2.83307 4.11681C2.89082 4.14733 3.01618 4.13231 3.06267 4.08817C3.41246 3.75528 3.75052 3.41017 4.09093 3.06742C4.12708 3.03127 4.15338 2.98525 4.18531 2.94206L4.18578 2.94252ZM10.0276 12.5162C9.50645 13.0369 8.97354 13.5698 8.48288 14.0595C9.0111 14.5924 9.55716 15.1437 10.1211 15.7122C10.3206 15.5066 10.5408 15.2859 10.7516 15.0563C10.7911 15.0131 10.8268 14.9253 10.8099 14.8779C10.63 14.3727 10.7376 13.928 11.0625 13.5562C10.7 13.1918 10.3488 12.8392 10.0272 12.5162H10.0276Z" fill="#14CEF4"/>
<path d="M17.0928 20.149C17.0937 20.4025 16.8707 20.6223 16.6144 20.6209C16.3533 20.6194 16.1448 20.4039 16.15 20.1415C16.1547 19.8856 16.3542 19.6879 16.6101 19.6851C16.8717 19.6823 17.0919 19.8936 17.0923 20.1485L17.0928 20.149Z" fill="#14CEF4"/>
</svg>
