<svg width="91" height="77" viewBox="0 0 91 77" fill="none" xmlns="http://www.w3.org/2000/svg">
<path d="M1.5 75.0262C4.08823 75.0262 7.97057 69.5909 12.5 68.8145C15.0882 68.8145 17.0294 74.2497 23.4999 75.0262C28.0293 75.0262 29.9705 69.5909 34.4999 69.5909C39.0293 69.5909 40.9705 75.0262 45.4999 75.0262C50.0293 75.0262 51.9704 69.5909 56.4998 69.5909C61.0292 69.5909 62.9704 75.0262 67.4998 75.0262C72.0292 75.0262 73.9704 69.5909 78.4998 69.5909C83.0292 69.5909 84.9704 75.0262 89.4998 75.0262" stroke="#5AEAF4" stroke-width="2" stroke-linecap="round" stroke-linejoin="round"/>
<path d="M10.3517 69.6171L7.38818 63.9489L83.7409 59.0312C77.7362 64.4924 70.0233 68.9183 62.2198 72.5418" stroke="#5AEAF4" stroke-width="2" stroke-linecap="round" stroke-linejoin="round"/>
<path d="M37.7871 11.1489C50.78 15.1219 68.9494 34.3136 75.1352 54.9417C71.7447 53.6088 69.2082 52.25 64.4459 53.4665C59.8388 36.7077 51.5953 20.6995 37.7871 11.1489Z" stroke="#5AEAF4" stroke-width="2" stroke-linecap="round" stroke-linejoin="round"/>
<path d="M13.626 1.97363C30.2683 9.09126 53.0965 28.9041 57.2894 55.2911C38.0977 47.5523 23.4872 51.6805 13.3154 57.957C28.8319 38.2347 21.8695 15.8077 13.626 1.97363Z" stroke="#5AEAF4" stroke-width="2" stroke-linecap="round" stroke-linejoin="round"/>
</svg>
