<svg width="191" height="97" viewBox="0 0 191 97" fill="none" xmlns="http://www.w3.org/2000/svg">
<rect x="2" y="1" width="187" height="93" rx="8" fill="#E2136E"/>
<rect x="2" y="1" width="187" height="93" rx="8" stroke="#000000" stroke-width="2" stroke-opacity="0.1"/>
<defs>
<filter id="filter0_d_bkash" x="0" y="0" width="191" height="97" filterUnits="userSpaceOnUse" color-interpolation-filters="sRGB">
<feFlood flood-opacity="0" result="BackgroundImageFix"/>
<feColorMatrix in="SourceAlpha" type="matrix" values="0 0 0 0 0 0 0 0 0 0 0 0 0 0 0 0 0 0 127 0" result="hardAlpha"/>
<feOffset dy="1"/>
<feGaussianBlur stdDeviation="1"/>
<feColorMatrix type="matrix" values="0 0 0 0 0 0 0 0 0 0 0 0 0 0 0 0 0 0 0.12 0"/>
<feBlend mode="normal" in2="BackgroundImageFix" result="effect1_dropShadow_bkash"/>
<feBlend mode="normal" in="SourceGraphic" in2="effect1_dropShadow_bkash" result="shape"/>
</filter>
</defs>
<g filter="url(#filter0_d_bkash)">
<rect x="2" y="1" width="187" height="93" rx="8" fill="#E2136E"/>
</g>
<!-- bKash Logo -->
<g transform="translate(20, 25)">
<text x="0" y="30" font-family="Arial, sans-serif" font-size="24" font-weight="bold" fill="white">bKash</text>
<text x="0" y="50" font-family="Arial, sans-serif" font-size="12" fill="white" opacity="0.9">Mobile Financial Service</text>
</g>
<!-- bKash Icon -->
<g transform="translate(130, 30)">
<circle cx="17.5" cy="17.5" r="17.5" fill="white" opacity="0.2"/>
<path d="M12 10h10v4h-6v4h6v4H12c-1.1 0-2-.9-2-2V12c0-1.1.9-2 2-2z" fill="white"/>
<path d="M22 14h4c1.1 0 2 .9 2 2v4c0 1.1-.9 2-2 2h-4v-8z" fill="white"/>
</g>
</svg>