<svg width="191" height="97" viewBox="0 0 191 97" fill="none" xmlns="http://www.w3.org/2000/svg">
<rect x="2" y="1" width="187" height="93" rx="8" fill="#FF6B35"/>
<rect x="2" y="1" width="187" height="93" rx="8" stroke="#000000" stroke-width="2" stroke-opacity="0.1"/>
<defs>
<filter id="filter0_d_nogod" x="0" y="0" width="191" height="97" filterUnits="userSpaceOnUse" color-interpolation-filters="sRGB">
<feFlood flood-opacity="0" result="BackgroundImageFix"/>
<feColorMatrix in="SourceAlpha" type="matrix" values="0 0 0 0 0 0 0 0 0 0 0 0 0 0 0 0 0 0 127 0" result="hardAlpha"/>
<feOffset dy="1"/>
<feGaussianBlur stdDeviation="1"/>
<feColorMatrix type="matrix" values="0 0 0 0 0 0 0 0 0 0 0 0 0 0 0 0 0 0 0.12 0"/>
<feBlend mode="normal" in2="BackgroundImageFix" result="effect1_dropShadow_nogod"/>
<feBlend mode="normal" in="SourceGraphic" in2="effect1_dropShadow_nogod" result="shape"/>
</filter>
</defs>
<g filter="url(#filter0_d_nogod)">
<rect x="2" y="1" width="187" height="93" rx="8" fill="#FF6B35"/>
</g>
<!-- Nogod Logo -->
<g transform="translate(20, 25)">
<text x="0" y="30" font-family="Arial, sans-serif" font-size="24" font-weight="bold" fill="white">Nogod</text>
<text x="0" y="50" font-family="Arial, sans-serif" font-size="12" fill="white" opacity="0.9">Mobile Banking</text>
</g>
<!-- Nogod Icon -->
<g transform="translate(130, 30)">
<circle cx="17.5" cy="17.5" r="17.5" fill="white" opacity="0.2"/>
<rect x="12" y="12" width="11" height="2" rx="1" fill="white"/>
<rect x="12" y="16" width="11" height="2" rx="1" fill="white"/>
<rect x="12" y="20" width="8" height="2" rx="1" fill="white"/>
<circle cx="26" cy="13" r="2" fill="white"/>
<path d="M26 17v4c0 1-1 2-2 2h-8c-1 0-2-1-2-2v-4h12z" fill="white"/>
</g>
</svg>