<svg width="191" height="97" viewBox="0 0 191 97" fill="none" xmlns="http://www.w3.org/2000/svg">
<rect x="2" y="1" width="187" height="93" rx="8" fill="#8A2BE2"/>
<rect x="2" y="1" width="187" height="93" rx="8" stroke="#000000" stroke-width="2" stroke-opacity="0.1"/>
<defs>
<filter id="filter0_d_rocket" x="0" y="0" width="191" height="97" filterUnits="userSpaceOnUse" color-interpolation-filters="sRGB">
<feFlood flood-opacity="0" result="BackgroundImageFix"/>
<feColorMatrix in="SourceAlpha" type="matrix" values="0 0 0 0 0 0 0 0 0 0 0 0 0 0 0 0 0 0 127 0" result="hardAlpha"/>
<feOffset dy="1"/>
<feGaussianBlur stdDeviation="1"/>
<feColorMatrix type="matrix" values="0 0 0 0 0 0 0 0 0 0 0 0 0 0 0 0 0 0 0.12 0"/>
<feBlend mode="normal" in2="BackgroundImageFix" result="effect1_dropShadow_rocket"/>
<feBlend mode="normal" in="SourceGraphic" in2="effect1_dropShadow_rocket" result="shape"/>
</filter>
</defs>
<g filter="url(#filter0_d_rocket)">
<rect x="2" y="1" width="187" height="93" rx="8" fill="#8A2BE2"/>
</g>
<!-- Rocket Logo -->
<g transform="translate(20, 25)">
<text x="0" y="30" font-family="Arial, sans-serif" font-size="24" font-weight="bold" fill="white">Rocket</text>
<text x="0" y="50" font-family="Arial, sans-serif" font-size="12" fill="white" opacity="0.9">Digital Payment</text>
</g>
<!-- Rocket Icon -->
<g transform="translate(130, 30)">
<circle cx="17.5" cy="17.5" r="17.5" fill="white" opacity="0.2"/>
<path d="M17.5 8l-2 6h4l-2-6z" fill="white"/>
<rect x="15.5" y="14" width="4" height="8" fill="white"/>
<path d="M13 22l2-2h5l2 2-2 3h-5l-2-3z" fill="white"/>
<circle cx="16" cy="17" r="1" fill="#8A2BE2"/>
<circle cx="19" cy="17" r="1" fill="#8A2BE2"/>
</g>
</svg>